<svg width="88" height="88" viewBox="0 0 88 88" fill="none" xmlns="http://www.w3.org/2000/svg">
<path d="M37.275 26.0349H26.9989C20.2002 26.0349 14.6689 20.5037 14.6689 13.7053C14.6689 6.90628 20.2002 1.375 26.9989 1.375C33.7976 1.375 39.3289 6.90628 39.3289 13.7046V23.9807C39.3289 25.1151 38.4094 26.0349 37.275 26.0349ZM26.9989 5.48316C22.4652 5.48316 18.7771 9.17125 18.7771 13.705C18.7771 18.2387 22.4655 21.9271 26.9989 21.9271H35.2207V13.7046C35.2207 9.17125 31.5326 5.48316 26.9989 5.48316Z" fill="#FF4397"/>
<path d="M51.6591 26.0349H41.383C40.2486 26.0349 39.3291 25.1154 39.3291 23.981V13.7046C39.3291 6.90628 44.8604 1.375 51.6587 1.375H51.6591C58.4578 1.375 63.9887 6.90628 63.9887 13.7046C63.989 20.5037 58.4578 26.0349 51.6591 26.0349ZM43.4373 21.9268H51.6594C56.1931 21.9268 59.8812 18.2387 59.8812 13.705C59.8812 9.17125 56.1931 5.48281 51.6594 5.48281C47.1257 5.48281 43.4373 9.17091 43.4373 13.7046V21.9268Z" fill="#FF4397"/>
<path d="M37.2746 26.7221H26.9989C19.8211 26.7221 13.9814 20.8828 13.9814 13.705C13.9814 6.52713 19.8207 0.6875 26.9989 0.6875C34.1768 0.6875 40.0164 6.52678 40.0164 13.7046V23.981C40.016 25.4925 38.7864 26.7221 37.2746 26.7221ZM26.9989 2.0625C20.579 2.0625 15.3561 7.28509 15.3561 13.705C15.3561 20.1245 20.579 25.3471 26.9986 25.3471H37.2743C38.0278 25.3471 38.641 24.7342 38.641 23.9807V13.7046C38.641 7.28509 33.4184 2.0625 26.9989 2.0625ZM35.2204 22.6143H26.9989C22.086 22.6143 18.0896 18.6175 18.0896 13.7046C18.0896 8.79209 22.0864 4.79531 26.9989 4.79531C31.9114 4.79531 35.9082 8.79209 35.9082 13.7046V21.9268C35.9079 22.3066 35.6002 22.6143 35.2204 22.6143ZM26.9989 6.17031C22.8444 6.17031 19.4646 9.55006 19.4646 13.7046C19.4646 17.8592 22.8447 21.2393 26.9989 21.2393H34.5332V13.7046C34.5329 9.55006 31.1531 6.17031 26.9989 6.17031Z" fill="#690589"/>
<path d="M51.6581 26.7221H41.382C39.8706 26.7221 38.6406 25.4925 38.6406 23.9807V13.7046C38.6406 6.52678 44.4799 0.6875 51.6578 0.6875C58.8356 0.6875 64.6752 6.52678 64.6752 13.7046C64.6752 20.8825 58.8359 26.7221 51.6581 26.7221ZM51.6581 2.0625C45.2382 2.0625 40.0156 7.28509 40.0156 13.7046V23.981C40.0156 24.7342 40.6285 25.3474 41.382 25.3474H51.6581C58.0776 25.3474 63.3002 20.1248 63.3002 13.705C63.3002 7.28509 58.0776 2.0625 51.6581 2.0625ZM51.6581 22.6143H43.4363C43.0568 22.6143 42.7488 22.3063 42.7488 21.9268V13.7046C42.7488 8.79209 46.7456 4.79531 51.6581 4.79531C56.5706 4.79531 60.5674 8.79209 60.5674 13.705C60.5674 18.6175 56.5706 22.6143 51.6581 22.6143ZM44.1238 21.2393H51.6581C55.8127 21.2393 59.1924 17.8595 59.1924 13.705C59.1924 9.55041 55.8127 6.17031 51.6581 6.17031C47.5035 6.17031 44.1238 9.55006 44.1238 13.7046V21.2393Z" fill="#690589"/>
<path d="M72.1874 20.9082H6.4707V86.6249H72.1874V20.9082Z" fill="#F4EFED"/>
<path d="M72.1871 20.9082H68.7637V86.6249H72.1871V20.9082Z" fill="#D6D1CF"/>
<path d="M9.89411 20.9082H6.4707V86.6249H9.89411V20.9082Z" fill="white"/>
<path d="M72.1874 87.3124H6.4707C6.0912 87.3124 5.7832 87.0044 5.7832 86.6249V20.9082C5.7832 20.5287 6.0912 20.2207 6.4707 20.2207H72.1874C72.5669 20.2207 72.8749 20.5287 72.8749 20.9082V86.6249C72.8749 87.0044 72.5673 87.3124 72.1874 87.3124ZM7.1582 85.9374H71.4999V21.5957H7.1582V85.9374Z" fill="#690589"/>
<path d="M76.9173 20.9082H1.74023V38.8021H76.9173V20.9082Z" fill="#F4EFED"/>
<path d="M76.9175 20.9082H73.4941V38.8021H76.9175V20.9082Z" fill="#D6D1CF"/>
<path d="M5.16364 20.9082H1.74023V38.8021H5.16364V20.9082Z" fill="white"/>
<path d="M76.9173 39.49H1.74023C1.36073 39.49 1.05273 39.182 1.05273 38.8025V20.9082C1.05273 20.5287 1.36073 20.2207 1.74023 20.2207H76.9173C77.2968 20.2207 77.6048 20.5287 77.6048 20.9082V38.8025C77.6048 39.182 77.2968 39.49 76.9173 39.49ZM2.42773 38.1146L76.2298 38.115V21.5957H2.42773V38.1146Z" fill="#690589"/>
<path d="M5.44238 32.5579C5.06288 32.5579 4.75488 32.2499 4.75488 31.8704V27.7454C4.75488 27.3659 5.06288 27.0579 5.44238 27.0579C5.82188 27.0579 6.12988 27.3659 6.12988 27.7454V31.8704C6.12988 32.2499 5.82188 32.5579 5.44238 32.5579Z" fill="#690589"/>
<path d="M45.8211 20.9082H32.8359V86.6249H45.8211V20.9082Z" fill="#FF4397"/>
<path d="M45.8214 87.3124H32.8359C32.4564 87.3124 32.1484 87.0044 32.1484 86.6249V20.9082C32.1484 20.5287 32.4564 20.2207 32.8359 20.2207H45.8211C46.2006 20.2207 46.5086 20.5287 46.5086 20.9082V86.6249C46.5089 87.0044 46.2009 87.3124 45.8214 87.3124ZM33.5234 85.9374H45.1336V21.5957H33.5234V85.9374Z" fill="#690589"/>
<path d="M56.0975 67.9009H76.7992C77.6998 67.9009 78.43 68.631 78.43 69.5316V72.5116C78.43 73.4122 77.6998 74.1423 76.7992 74.1423H56.0975C55.1969 74.1423 54.4668 73.4122 54.4668 72.5116V69.5316C54.4668 68.631 55.1969 67.9009 56.0975 67.9009Z" fill="#FCC24C"/>
<path d="M76.7993 67.9009H74.2793C75.1799 67.9009 75.91 68.631 75.91 69.5316V72.5116C75.91 73.4122 75.1799 74.1423 74.2793 74.1423H76.7993C77.7 74.1423 78.4301 73.4122 78.4301 72.5116V69.5316C78.4297 68.631 77.7 67.9009 76.7993 67.9009Z" fill="#DEA42E"/>
<path d="M56.0975 74.1423H58.6176C57.717 74.1423 56.9868 73.4122 56.9868 72.5116V69.5316C56.9868 68.631 57.717 67.9009 58.6176 67.9009H56.0975C55.1969 67.9009 54.4668 68.631 54.4668 69.5316V72.5116C54.4668 73.4122 55.1969 74.1423 56.0975 74.1423Z" fill="#FCE06A"/>
<path d="M76.7992 74.83H56.0975C54.8191 74.83 53.7793 73.7901 53.7793 72.5121V69.5318C53.7793 68.2537 54.8191 67.2139 56.0975 67.2139H76.7992C78.0773 67.2139 79.1171 68.2537 79.1171 69.5318V72.5121C79.1171 73.7898 78.0773 74.83 76.7992 74.83ZM56.0975 68.5885C55.5775 68.5885 55.1543 69.0113 55.1543 69.5314V72.5117C55.1543 73.0318 55.5775 73.4546 56.0975 73.4546H76.7992C77.3193 73.4546 77.7421 73.0318 77.7421 72.5117V69.5314C77.7421 69.0113 77.3193 68.5885 76.7992 68.5885H56.0975Z" fill="#690589"/>
<path d="M56.0975 61.6599H76.7992C77.6998 61.6599 78.43 62.39 78.43 63.2907V66.2706C78.43 67.1713 77.6998 67.9014 76.7992 67.9014H56.0975C55.1969 67.9014 54.4668 67.1713 54.4668 66.2706V63.2907C54.4668 62.3897 55.1969 61.6599 56.0975 61.6599Z" fill="#FCC24C"/>
<path d="M76.7993 61.6599H74.2793C75.1799 61.6599 75.91 62.39 75.91 63.2907V66.2706C75.91 67.1713 75.1799 67.9014 74.2793 67.9014H76.7993C77.7 67.9014 78.4301 67.1713 78.4301 66.2706V63.2907C78.4297 62.3897 77.7 61.6599 76.7993 61.6599Z" fill="#DEA42E"/>
<path d="M56.0975 67.9009H58.6176C57.717 67.9009 56.9868 67.1708 56.9868 66.2701V63.2902C56.9868 62.3895 57.717 61.6594 58.6176 61.6594H56.0975C55.1969 61.6594 54.4668 62.3895 54.4668 63.2902V66.2701C54.4668 67.1708 55.1969 67.9009 56.0975 67.9009Z" fill="#FCE06A"/>
<path d="M76.7992 68.5884H56.0975C54.8191 68.5884 53.7793 67.5485 53.7793 66.2701V63.2902C53.7793 62.0118 54.8191 60.9719 56.0975 60.9719H76.7992C78.0773 60.9719 79.1171 62.0118 79.1171 63.2902V66.2701C79.1171 67.5485 78.0773 68.5884 76.7992 68.5884ZM56.0975 62.3469C55.5775 62.3469 55.1543 62.7701 55.1543 63.2902V66.2701C55.1543 66.7902 55.5775 67.2134 56.0975 67.2134H76.7992C77.3193 67.2134 77.7421 66.7902 77.7421 66.2701V63.2902C77.7421 62.7701 77.3193 62.3469 76.7992 62.3469H56.0975Z" fill="#690589"/>
<path d="M56.0975 55.4185H76.7992C77.6998 55.4185 78.43 56.1486 78.43 57.0492V60.0292C78.43 60.9298 77.6998 61.6599 76.7992 61.6599H56.0975C55.1969 61.6599 54.4668 60.9298 54.4668 60.0292V57.0492C54.4668 56.1486 55.1969 55.4185 56.0975 55.4185Z" fill="#FCC24C"/>
<path d="M76.7993 55.4185H74.2793C75.1799 55.4185 75.91 56.1486 75.91 57.0492V60.0292C75.91 60.9298 75.1799 61.6599 74.2793 61.6599H76.7993C77.7 61.6599 78.4301 60.9298 78.4301 60.0292V57.0492C78.4297 56.1486 77.7 55.4185 76.7993 55.4185Z" fill="#DEA42E"/>
<path d="M56.0975 61.6599H58.6176C57.717 61.6599 56.9868 60.9298 56.9868 60.0292V57.0492C56.9868 56.1486 57.717 55.4185 58.6176 55.4185H56.0975C55.1969 55.4185 54.4668 56.1486 54.4668 57.0492V60.0292C54.4668 60.9298 55.1969 61.6599 56.0975 61.6599Z" fill="#FCE06A"/>
<path d="M76.7992 62.3471H56.0975C54.8191 62.3471 53.7793 61.3072 53.7793 60.0292V57.0492C53.7793 55.7708 54.8191 54.731 56.0975 54.731H76.7992C78.0773 54.731 79.1171 55.7708 79.1171 57.0492V60.0292C79.1171 61.3072 78.0773 62.3471 76.7992 62.3471ZM56.0975 56.106C55.5775 56.106 55.1543 56.5291 55.1543 57.0492V60.0292C55.1543 60.5493 55.5775 60.9721 56.0975 60.9721H76.7992C77.3193 60.9721 77.7421 60.5493 77.7421 60.0292V57.0492C77.7421 56.5291 77.3193 56.106 76.7992 56.106H56.0975Z" fill="#690589"/>
<path d="M56.0975 74.1423H76.7992C77.6998 74.1423 78.43 74.8725 78.43 75.7731V78.7531C78.43 79.6537 77.6998 80.3838 76.7992 80.3838H56.0975C55.1969 80.3838 54.4668 79.6537 54.4668 78.7531V75.7731C54.4668 74.8725 55.1969 74.1423 56.0975 74.1423Z" fill="#FCC24C"/>
<path d="M76.7993 74.1423H74.2793C75.1799 74.1423 75.91 74.8725 75.91 75.7731V78.7531C75.91 79.6537 75.1799 80.3838 74.2793 80.3838H76.7993C77.7 80.3838 78.4301 79.6537 78.4301 78.7531V75.7731C78.4297 74.8725 77.7 74.1423 76.7993 74.1423Z" fill="#DEA42E"/>
<path d="M56.0975 80.3836H58.6176C57.717 80.3836 56.9868 79.6534 56.9868 78.7528V75.7728C56.9868 74.8722 57.717 74.1421 58.6176 74.1421H56.0975C55.1969 74.1421 54.4668 74.8722 54.4668 75.7728V78.7528C54.4668 79.6534 55.1969 80.3836 56.0975 80.3836Z" fill="#FCE06A"/>
<path d="M76.7992 81.0713H56.0975C54.8191 81.0713 53.7793 80.0315 53.7793 78.7531V75.7731C53.7793 74.4947 54.8191 73.4548 56.0975 73.4548H76.7992C78.0773 73.4548 79.1171 74.4947 79.1171 75.7731V78.7531C79.1171 80.0311 78.0773 81.0713 76.7992 81.0713ZM56.0975 74.8298C55.5775 74.8298 55.1543 75.253 55.1543 75.7731V78.7531C55.1543 79.2731 55.5775 79.6963 56.0975 79.6963H76.7992C77.3193 79.6963 77.7421 79.2731 77.7421 78.7531V75.7731C77.7421 75.253 77.3193 74.8298 76.7992 74.8298H56.0975Z" fill="#690589"/>
<path d="M56.0975 80.3835H76.7992C77.6998 80.3835 78.43 81.1137 78.43 82.0143V84.9943C78.43 85.8949 77.6998 86.625 76.7992 86.625H56.0975C55.1969 86.625 54.4668 85.8949 54.4668 84.9943V82.0143C54.4668 81.1137 55.1969 80.3835 56.0975 80.3835Z" fill="#FCC24C"/>
<path d="M76.7993 80.3835H74.2793C75.1799 80.3835 75.91 81.1137 75.91 82.0143V84.9943C75.91 85.8949 75.1799 86.625 74.2793 86.625H76.7993C77.7 86.625 78.4301 85.8949 78.4301 84.9943V82.0143C78.4297 81.1137 77.7 80.3835 76.7993 80.3835Z" fill="#DEA42E"/>
<path d="M56.0975 86.625H58.6176C57.717 86.625 56.9868 85.8949 56.9868 84.9943V82.0143C56.9868 81.1137 57.717 80.3835 58.6176 80.3835H56.0975C55.1969 80.3835 54.4668 81.1137 54.4668 82.0143V84.9943C54.4668 85.8949 55.1969 86.625 56.0975 86.625Z" fill="#FCE06A"/>
<path d="M76.7992 87.3124H56.0975C54.8191 87.3124 53.7793 86.2726 53.7793 84.9942V82.0142C53.7793 80.7361 54.8191 79.6963 56.0975 79.6963H76.7992C78.0773 79.6963 79.1171 80.7361 79.1171 82.0142V84.9942C79.1171 86.2726 78.0773 87.3124 76.7992 87.3124ZM56.0975 81.0713C55.5775 81.0713 55.1543 81.4941 55.1543 82.0142V84.9942C55.1543 85.5143 55.5775 85.9374 56.0975 85.9374H76.7992C77.3193 85.9374 77.7421 85.5143 77.7421 84.9942V82.0142C77.7421 81.4941 77.3193 81.0713 76.7992 81.0713H56.0975Z" fill="#690589"/>
<path d="M63.9276 74.1423H84.6293C85.5299 74.1423 86.26 74.8725 86.26 75.7731V78.7531C86.26 79.6537 85.5299 80.3838 84.6293 80.3838H63.9276C63.027 80.3838 62.2969 79.6537 62.2969 78.7531V75.7731C62.2969 74.8725 63.027 74.1423 63.9276 74.1423Z" fill="#FCC24C"/>
<path d="M84.6294 74.1423H82.1094C83.01 74.1423 83.7401 74.8725 83.7401 75.7731V78.7531C83.7401 79.6537 83.01 80.3838 82.1094 80.3838H84.6294C85.53 80.3838 86.2602 79.6537 86.2602 78.7531V75.7731C86.2598 74.8725 85.53 74.1423 84.6294 74.1423Z" fill="#DEA42E"/>
<path d="M63.9276 80.3836H66.4477C65.547 80.3836 64.8169 79.6534 64.8169 78.7528V75.7728C64.8169 74.8722 65.547 74.1421 66.4477 74.1421H63.9276C63.027 74.1421 62.2969 74.8722 62.2969 75.7728V78.7528C62.2969 79.6534 63.027 80.3836 63.9276 80.3836Z" fill="#FCE06A"/>
<path d="M84.6289 81.0713H63.9276C62.6492 81.0713 61.6094 80.0315 61.6094 78.7531V75.7731C61.6094 74.4947 62.6492 73.4548 63.9276 73.4548H84.6289C85.9073 73.4548 86.9472 74.4947 86.9472 75.7731V78.7531C86.9472 80.0311 85.9073 81.0713 84.6289 81.0713ZM63.928 74.8298C63.4079 74.8298 62.9847 75.253 62.9847 75.7731V78.7531C62.9847 79.2731 63.4079 79.6963 63.928 79.6963H84.6293C85.1494 79.6963 85.5725 79.2731 85.5725 78.7531V75.7731C85.5725 75.253 85.1494 74.8298 84.6293 74.8298H63.928Z" fill="#690589"/>
<path d="M63.9276 67.9009H84.6293C85.5299 67.9009 86.26 68.631 86.26 69.5316V72.5116C86.26 73.4122 85.5299 74.1423 84.6293 74.1423H63.9276C63.027 74.1423 62.2969 73.4122 62.2969 72.5116V69.5316C62.2969 68.631 63.027 67.9009 63.9276 67.9009Z" fill="#FCC24C"/>
<path d="M84.6294 67.9009H82.1094C83.01 67.9009 83.7401 68.631 83.7401 69.5316V72.5116C83.7401 73.4122 83.01 74.1423 82.1094 74.1423H84.6294C85.53 74.1423 86.2602 73.4122 86.2602 72.5116V69.5316C86.2598 68.631 85.53 67.9009 84.6294 67.9009Z" fill="#DEA42E"/>
<path d="M63.9276 74.1423H66.4477C65.547 74.1423 64.8169 73.4122 64.8169 72.5116V69.5316C64.8169 68.631 65.547 67.9009 66.4477 67.9009H63.9276C63.027 67.9009 62.2969 68.631 62.2969 69.5316V72.5116C62.2969 73.4122 63.027 74.1423 63.9276 74.1423Z" fill="#FCE06A"/>
<path d="M84.6289 74.83H63.9276C62.6492 74.83 61.6094 73.7901 61.6094 72.5121V69.5318C61.6094 68.2537 62.6492 67.2139 63.9276 67.2139H84.6289C85.9073 67.2139 86.9472 68.2537 86.9472 69.5318V72.5121C86.9472 73.7898 85.9073 74.83 84.6289 74.83ZM63.928 68.5885C63.4079 68.5885 62.9847 69.0113 62.9847 69.5314V72.5117C62.9847 73.0318 63.4079 73.4546 63.928 73.4546H84.6293C85.1494 73.4546 85.5725 73.0318 85.5725 72.5117V69.5314C85.5725 69.0113 85.1494 68.5885 84.6293 68.5885H63.928Z" fill="#690589"/>
<path d="M63.9276 80.3835H84.6293C85.5299 80.3835 86.26 81.1137 86.26 82.0143V84.9943C86.26 85.8949 85.5299 86.625 84.6293 86.625H63.9276C63.027 86.625 62.2969 85.8949 62.2969 84.9943V82.0143C62.2969 81.1137 63.027 80.3835 63.9276 80.3835Z" fill="#FCC24C"/>
<path d="M84.6294 80.3835H82.1094C83.01 80.3835 83.7401 81.1137 83.7401 82.0143V84.9943C83.7401 85.8949 83.01 86.625 82.1094 86.625H84.6294C85.53 86.625 86.2602 85.8949 86.2602 84.9943V82.0143C86.2598 81.1137 85.53 80.3835 84.6294 80.3835Z" fill="#DEA42E"/>
<path d="M63.9276 86.625H66.4477C65.547 86.625 64.8169 85.8949 64.8169 84.9943V82.0143C64.8169 81.1137 65.547 80.3835 66.4477 80.3835H63.9276C63.027 80.3835 62.2969 81.1137 62.2969 82.0143V84.9943C62.2969 85.8949 63.027 86.625 63.9276 86.625Z" fill="#FCE06A"/>
<path d="M84.6289 87.3124H63.9276C62.6492 87.3124 61.6094 86.2726 61.6094 84.9942V82.0142C61.6094 80.7361 62.6492 79.6963 63.9276 79.6963H84.6289C85.9073 79.6963 86.9472 80.7361 86.9472 82.0142V84.9942C86.9472 86.2726 85.9073 87.3124 84.6289 87.3124ZM63.928 81.0713C63.4079 81.0713 62.9847 81.4941 62.9847 82.0142V84.9942C62.9847 85.5143 63.4079 85.9374 63.928 85.9374H84.6293C85.1494 85.9374 85.5725 85.5143 85.5725 84.9942V82.0142C85.5725 81.4941 85.1494 81.0713 84.6293 81.0713H63.928Z" fill="#690589"/>
</svg>
