<svg width="93" height="93" viewBox="0 0 93 93" fill="none" xmlns="http://www.w3.org/2000/svg">
<path d="M41.5273 8.39954L36.4885 0.738037L31.4496 8.39954L23.4932 0.738037L27.2138 24.1293H36.4885H45.7631L49.4838 0.738037L41.5273 8.39954Z" fill="#F4EFED"/>
<path d="M45.159 4.90281L42.1006 24.1293H45.7633L49.4839 0.738037L45.159 4.90281Z" fill="#D6D1CF"/>
<path d="M27.8185 4.90281L30.8765 24.1293H27.2138L23.4932 0.738037L27.8185 4.90281Z" fill="white"/>
<path d="M45.7619 24.8674H27.2125C26.8525 24.8674 26.5456 24.6039 26.4883 24.2459L22.7681 0.85464C22.7182 0.541655 22.8726 0.231622 23.1516 0.0843567C23.4307 -0.0625398 23.7713 -0.0145586 23.9994 0.204679L31.3218 7.25571L35.8759 0.330907C36.012 0.124218 36.2415 0.000204837 36.4876 0.000204837C36.7336 0.000204837 36.9631 0.124218 37.0992 0.330907L41.6536 7.25571L48.9761 0.204679C49.2038 -0.0145586 49.5452 -0.0625398 49.8239 0.0843567C50.1029 0.231622 50.2573 0.541655 50.2074 0.85464L46.4857 24.2459C46.4288 24.6039 46.1219 24.8674 45.7619 24.8674ZM27.8377 23.3911H45.1367L48.414 2.78902L42.0335 8.93284C41.8762 9.08417 41.6599 9.15651 41.445 9.13288C41.229 9.10853 41.0351 8.98894 40.9152 8.80661L36.4872 2.07521L32.0603 8.80698C31.9404 8.98931 31.7465 9.10889 31.5305 9.13325C31.3156 9.15688 31.0985 9.08417 30.942 8.93321L24.5607 2.78865L27.8377 23.3911Z" fill="#690589"/>
<path d="M71.646 66.2463C71.646 85.791 55.9054 92.0573 36.4885 92.0573C17.0717 92.0573 1.33105 85.791 1.33105 66.2463C1.33105 46.7017 17.0717 21.2798 36.4885 21.2798C55.9054 21.2798 71.646 46.7017 71.646 66.2463Z" fill="#F4EFED"/>
<path d="M36.4893 21.2798C35.6896 21.2798 34.8969 21.327 34.1104 21.4108C52.4177 23.3677 66.8892 47.5067 66.8892 66.2463C66.8892 84.9856 52.4169 91.514 34.1104 92.0208C34.8972 92.0425 35.6889 92.0573 36.4893 92.0573C55.9062 92.0573 71.6468 85.791 71.6468 66.2463C71.6468 46.7017 55.9066 21.2798 36.4893 21.2798Z" fill="#D6D1CF"/>
<path d="M36.4885 21.2798C37.2882 21.2798 38.081 21.327 38.8671 21.4108C20.5598 23.3677 6.08829 47.5067 6.08829 66.2463C6.08829 84.9856 20.5606 91.514 38.8671 92.0208C38.0803 92.0425 37.2886 92.0573 36.4885 92.0573C17.0717 92.0573 1.33105 85.791 1.33105 66.2463C1.33105 46.7017 17.0717 21.2798 36.4885 21.2798Z" fill="white"/>
<path d="M36.4885 92.7951C25.724 92.7951 17.2289 90.881 11.2393 87.1064C4.17823 82.6563 0.597656 75.6378 0.597656 66.246C0.597656 56.3449 4.4998 45.0375 11.0354 35.999C18.2435 26.0307 27.2831 20.5413 36.4885 20.5413C45.6942 20.5413 54.7338 26.0311 61.9419 35.999C68.4775 45.0375 72.3797 56.3449 72.3797 66.246C72.3797 75.6378 68.7991 82.6559 61.7384 87.1064C55.7484 90.881 47.2529 92.7951 36.4885 92.7951ZM36.4885 22.0176C27.7642 22.0176 19.1459 27.2915 12.2212 36.8678C5.86127 45.6631 2.06435 56.6457 2.06435 66.246C2.06435 75.0952 5.41319 81.6926 12.0177 85.8548C17.7701 89.4804 26.0038 91.3184 36.4885 91.3184C46.9739 91.3184 55.2072 89.4804 60.9596 85.8548C67.5641 81.6926 70.913 75.0952 70.913 66.246C70.913 56.6457 67.116 45.6631 60.7561 36.8678C53.8314 27.2915 45.2128 22.0176 36.4885 22.0176Z" fill="#690589"/>
<path d="M14.4681 39.7173C14.3185 39.7173 14.1674 39.6711 14.0373 39.5759C13.7095 39.336 13.6376 38.8743 13.8759 38.5447C15.0783 36.8823 16.3642 35.3026 17.6981 33.8495C17.9728 33.5506 18.437 33.5317 18.7344 33.8086C19.0321 34.0854 19.0501 34.5523 18.7751 34.8516C17.48 36.2623 16.2307 37.7973 15.0618 39.4135C14.9184 39.6121 14.6947 39.7173 14.4681 39.7173Z" fill="#690589"/>
<path d="M36.8159 44.6418C37.6028 44.6418 38.2257 45.2689 38.2257 46.061V46.7873C40.1607 47.0184 41.8001 47.6455 43.3086 48.6029C43.8333 48.9 44.2924 49.3949 44.2924 50.1874C44.2924 51.2105 43.4725 52.0025 42.4561 52.0025C42.1279 52.0025 41.8004 51.9036 41.4723 51.7054C40.3246 51.0123 39.2095 50.5173 38.0948 50.2531V56.5903C43.0787 57.8444 45.2102 59.8578 45.2102 63.3896C45.2102 67.0203 42.3904 69.4297 38.2257 69.8257V71.8059C38.2257 72.5979 37.6028 73.2254 36.8159 73.2254C36.029 73.2254 35.373 72.5979 35.373 71.8059V69.7597C32.9137 69.4954 30.6514 68.6044 28.6511 67.1849C28.0938 66.8217 27.7656 66.2939 27.7656 65.6008C27.7656 64.5777 28.5525 63.7856 29.5693 63.7856C29.9627 63.7856 30.3565 63.9178 30.6513 64.1484C32.1925 65.2705 33.701 66.03 35.5043 66.36V59.8578C30.7166 58.6037 28.4869 56.7881 28.4869 53.0585C28.4869 49.5267 31.2743 47.0845 35.373 46.7541V46.061C35.373 45.2689 36.029 44.6418 36.8159 44.6418ZM35.5043 55.8968V50.0549C33.4058 50.2531 32.3564 51.3751 32.3564 52.8275C32.3568 54.2137 32.9794 55.0719 35.5043 55.8968ZM38.0948 60.4849V66.4921C40.1933 66.2611 41.341 65.2048 41.341 63.6207C41.3414 62.1683 40.6198 61.277 38.0948 60.4849Z" fill="#690589"/>
<path d="M92.2668 67.9395H50.3145V73.9689H92.2668V67.9395Z" fill="#7BAC51"/>
<path d="M92.2668 73.9695H50.3145V79.9989H92.2668V73.9695Z" fill="#7BAC51"/>
<path d="M92.2668 79.9988H50.3145V86.0282H92.2668V79.9988Z" fill="#7BAC51"/>
<path d="M92.2668 86.0283H50.3145V92.0577H92.2668V86.0283Z" fill="#7BAC51"/>
<path d="M92.2661 67.9395H89.9385V73.9689H92.2661V67.9395Z" fill="#5D8E33"/>
<path d="M52.6421 67.9395H50.3145V73.9689H52.6421V67.9395Z" fill="#99CA6F"/>
<path d="M92.2661 73.9695H89.9385V79.9989H92.2661V73.9695Z" fill="#5D8E33"/>
<path d="M52.6421 73.9695H50.3145V79.9989H52.6421V73.9695Z" fill="#99CA6F"/>
<path d="M92.2661 79.9988H89.9385V86.0282H92.2661V79.9988Z" fill="#5D8E33"/>
<path d="M52.6421 79.9988H50.3145V86.0282H52.6421V79.9988Z" fill="#99CA6F"/>
<path d="M92.2661 86.0283H89.9385V92.0577H92.2661V86.0283Z" fill="#5D8E33"/>
<path d="M52.6421 86.0283H50.3145V92.0577H52.6421V86.0283Z" fill="#99CA6F"/>
<path d="M92.2668 44.3135H50.3145V67.9398H92.2668V44.3135Z" fill="#7BAC51"/>
<path d="M71.2894 64.1579C75.696 64.1579 79.2682 60.5621 79.2682 56.1265C79.2682 51.691 75.696 48.0952 71.2894 48.0952C66.8828 48.0952 63.3105 51.691 63.3105 56.1265C63.3105 60.5621 66.8828 64.1579 71.2894 64.1579Z" fill="#FCC24C"/>
<path d="M92.2661 44.3135H89.9385V67.9398H92.2661V44.3135Z" fill="#5D8E33"/>
<path d="M52.6421 44.3135H50.3145V67.9398H52.6421V44.3135Z" fill="#99CA6F"/>
<path d="M71.4095 50.8181C71.7018 50.8181 71.9331 51.051 71.9331 51.3452V51.6146C72.6518 51.7006 73.2605 51.9335 73.8208 52.2889C74.0155 52.3993 74.1864 52.5831 74.1864 52.8773C74.1864 53.2574 73.8816 53.5516 73.5043 53.5516C73.3826 53.5516 73.2609 53.5147 73.1388 53.4412C72.7127 53.1836 72.2983 52.9998 71.8844 52.902V55.2556C73.7353 55.7214 74.527 56.4692 74.527 57.7809C74.527 59.1292 73.4794 60.0242 71.9328 60.1715V60.9071C71.9328 61.2013 71.7014 61.4342 71.4092 61.4342C71.1169 61.4342 70.8734 61.2013 70.8734 60.9071V60.1471C69.9601 60.049 69.1196 59.7183 68.3768 59.1912C68.1696 59.0565 68.0479 58.8601 68.0479 58.6029C68.0479 58.2231 68.3401 57.9286 68.7178 57.9286C68.8637 57.9286 69.01 57.9777 69.1196 58.0633C69.692 58.48 70.2523 58.762 70.9218 58.8845V56.4696C69.1438 56.0038 68.3155 55.3295 68.3155 53.9443C68.3155 52.6325 69.3506 51.7253 70.8731 51.6028V51.3452C70.8734 51.051 71.1173 50.8181 71.4095 50.8181ZM70.9222 54.9984V52.8285C70.1427 52.902 69.7533 53.319 69.7533 53.8583C69.7533 54.3732 69.9846 54.6917 70.9222 54.9984ZM71.8844 56.7021V58.9332C72.6639 58.8476 73.09 58.4553 73.09 57.8669C73.09 57.3273 72.8223 56.9963 71.8844 56.7021Z" fill="#690589"/>
<path d="M71.2893 64.8962C66.4852 64.8962 62.5771 60.9621 62.5771 56.1267C62.5771 51.2909 66.4852 47.3572 71.2893 47.3572C76.0935 47.3572 80.0015 51.2913 80.0015 56.1267C80.0015 60.9621 76.0935 64.8962 71.2893 64.8962ZM71.2893 48.8335C67.294 48.8335 64.0438 52.1051 64.0438 56.1267C64.0438 60.1482 67.294 63.4198 71.2893 63.4198C75.2846 63.4198 78.5348 60.1482 78.5348 56.1267C78.5348 52.1051 75.2842 48.8335 71.2893 48.8335Z" fill="#690589"/>
<path d="M92.2663 68.6778H85.8037C85.3989 68.6778 85.0703 68.3471 85.0703 67.9396C85.0703 63.9457 88.2985 60.6963 92.2663 60.6963C92.6711 60.6963 92.9996 61.027 92.9996 61.4345V67.9396C92.9996 68.3471 92.6711 68.6778 92.2663 68.6778ZM86.5836 67.2014H91.5329V62.2195C88.9585 62.5517 86.914 64.6101 86.5836 67.2014Z" fill="#690589"/>
<path d="M92.2663 51.5572C88.2985 51.5572 85.0703 48.3077 85.0703 44.3139C85.0703 43.9064 85.3989 43.5757 85.8037 43.5757H92.2663C92.6711 43.5757 92.9996 43.9064 92.9996 44.3139V50.819C92.9996 51.2268 92.6711 51.5572 92.2663 51.5572ZM86.5836 45.052C86.914 47.6434 88.9589 49.7018 91.5329 50.034V45.052H86.5836Z" fill="#690589"/>
<path d="M50.3144 51.5572C49.9096 51.5572 49.5811 51.2265 49.5811 50.819V44.3139C49.5811 43.9064 49.9096 43.5757 50.3144 43.5757H56.7774C57.1822 43.5757 57.5107 43.9064 57.5107 44.3139C57.5107 48.3077 54.2826 51.5572 50.3144 51.5572ZM51.0478 45.052V50.034C53.6222 49.7018 55.6671 47.643 55.9975 45.052H51.0478Z" fill="#690589"/>
<path d="M56.7774 68.6782H50.3144C49.9096 68.6782 49.5811 68.3475 49.5811 67.94V61.4345C49.5811 61.027 49.9096 60.6963 50.3144 60.6963C54.2826 60.6963 57.5107 63.9457 57.5107 67.9396C57.5107 68.3475 57.1822 68.6782 56.7774 68.6782ZM51.0478 67.2018H55.9975C55.6671 64.6104 53.6218 62.5521 51.0478 62.2199V67.2018Z" fill="#690589"/>
<path d="M92.2667 68.6784H50.3144C49.9096 68.6784 49.5811 68.3477 49.5811 67.9402V44.3139C49.5811 43.9064 49.9096 43.5757 50.3144 43.5757H92.2667C92.6715 43.5757 93.0001 43.9064 93.0001 44.3139V67.9402C93.0001 68.3477 92.6715 68.6784 92.2667 68.6784ZM51.0478 67.202H91.5334V45.052H51.0478V67.202Z" fill="#690589"/>
<path d="M92.2667 74.7074H50.3144C49.9096 74.7074 49.5811 74.3767 49.5811 73.9692V67.9398C49.5811 67.5324 49.9096 67.2017 50.3144 67.2017H92.2667C92.6715 67.2017 93.0001 67.5324 93.0001 67.9398V73.9692C93.0001 74.3767 92.6715 74.7074 92.2667 74.7074ZM51.0478 73.2311H91.5334V68.678H51.0478V73.2311Z" fill="#690589"/>
<path d="M92.2667 80.7367H50.3144C49.9096 80.7367 49.5811 80.406 49.5811 79.9985V73.9691C49.5811 73.5617 49.9096 73.231 50.3144 73.231H92.2667C92.6715 73.231 93.0001 73.5617 93.0001 73.9691V79.9985C93.0001 80.4064 92.6715 80.7367 92.2667 80.7367ZM51.0478 79.2604H91.5334V74.7073H51.0478V79.2604Z" fill="#690589"/>
<path d="M92.2667 86.766H50.3144C49.9096 86.766 49.5811 86.4353 49.5811 86.0278V79.9984C49.5811 79.591 49.9096 79.2603 50.3144 79.2603H92.2667C92.6715 79.2603 93.0001 79.591 93.0001 79.9984V86.0278C93.0001 86.4357 92.6715 86.766 92.2667 86.766ZM51.0478 85.2897H91.5334V80.7366H51.0478V85.2897Z" fill="#690589"/>
<path d="M92.2667 92.7955H50.3144C49.9096 92.7955 49.5811 92.4648 49.5811 92.0574V86.028C49.5811 85.6205 49.9096 85.2898 50.3144 85.2898H92.2667C92.6715 85.2898 93.0001 85.6205 93.0001 86.028V92.0574C93.0001 92.4648 92.6715 92.7955 92.2667 92.7955ZM51.0478 91.3192H91.5334V86.7661H51.0478V91.3192Z" fill="#690589"/>
<path d="M38.6338 21.1277V30.4634C38.6338 32.1209 39.9688 33.4648 41.6156 33.4648C43.2623 33.4648 44.5974 32.1209 44.5974 30.4634V21.1277H38.6338Z" fill="#FF4397"/>
<path d="M41.6155 34.2033C39.5669 34.2033 37.9004 32.5258 37.9004 30.4637V21.1281C37.9004 20.7206 38.2289 20.3899 38.6337 20.3899H44.5977C45.0025 20.3899 45.331 20.7206 45.331 21.1281V30.4637C45.331 32.5258 43.6641 34.2033 41.6155 34.2033ZM39.3671 21.8662V30.4637C39.3671 31.7116 40.3758 32.727 41.6155 32.727C42.8556 32.727 43.8643 31.7116 43.8643 30.4637V21.8662H39.3671Z" fill="#690589"/>
<path d="M45.7635 18.1257H27.2142C25.5675 18.1257 24.2324 19.4696 24.2324 21.1271C24.2324 22.7847 25.5675 24.1286 27.2142 24.1286H45.7635C47.4103 24.1286 48.7453 22.7847 48.7453 21.1271C48.7457 19.4696 47.4103 18.1257 45.7635 18.1257Z" fill="#FF4397"/>
<path d="M45.7633 18.1265H42.1006C43.7473 18.1265 45.0824 19.4703 45.0824 21.1279C45.0824 22.7854 43.7473 24.1293 42.1006 24.1293H45.7633C47.41 24.1293 48.7451 22.7854 48.7451 21.1279C48.7451 19.4703 47.41 18.1265 45.7633 18.1265Z" fill="#E12579"/>
<path d="M27.2142 24.1293H30.8769C29.2302 24.1293 27.8951 22.7854 27.8951 21.1279C27.8951 19.4703 29.2302 18.1265 30.8769 18.1265H27.2142C25.5675 18.1265 24.2324 19.4703 24.2324 21.1279C24.2324 22.7854 25.5675 24.1293 27.2142 24.1293Z" fill="#FF61B5"/>
<path d="M45.7635 24.8676H27.2142C25.1656 24.8676 23.499 23.1901 23.499 21.128C23.499 19.0659 25.1656 17.3884 27.2142 17.3884H45.7635C47.8121 17.3884 49.479 19.0659 49.479 21.128C49.479 23.1901 47.8121 24.8676 45.7635 24.8676ZM27.2142 18.8644C25.9744 18.8644 24.9657 19.8798 24.9657 21.1276C24.9657 22.3755 25.9744 23.3909 27.2142 23.3909H45.7635C47.0036 23.3909 48.0123 22.3755 48.0123 21.1276C48.0123 19.8798 47.0036 18.8644 45.7635 18.8644H27.2142Z" fill="#690589"/>
</svg>
