<svg width="565" height="501" viewBox="0 0 565 501" fill="none" xmlns="http://www.w3.org/2000/svg">
<path d="M330.326 181.613C330.326 181.613 329.484 136.579 370.198 136.579C413.12 136.579 405.172 106.104 446.579 108.591C474.566 110.274 481.825 139.833 497.918 144.201C514.012 148.568 529.164 153.868 529.164 180.76L330.326 181.613Z" fill="white"/>
<path d="M418.306 406.417C418.306 406.417 417.685 373.194 447.721 373.194C479.389 373.194 473.524 350.71 504.071 352.546C524.719 353.788 530.072 375.596 541.948 378.818C553.823 382.04 565 385.95 565 405.792L418.306 406.417Z" fill="white"/>
<path d="M0.00117461 254.153C0.00117461 254.153 -0.745695 214.141 35.4268 214.141C73.5616 214.141 66.4994 187.065 103.285 189.279C128.147 190.774 134.596 217.035 148.897 220.916C163.198 224.796 176.657 229.505 176.657 253.397L0.00117461 254.153Z" fill="white"/>
<path opacity="0.1" d="M330.326 181.613C330.326 181.613 329.484 136.579 370.198 136.579C413.12 136.579 405.172 106.104 446.579 108.591C474.566 110.274 481.825 139.833 497.918 144.201C514.012 148.568 529.164 153.868 529.164 180.76L330.326 181.613Z" fill="#1F5AB2"/>
<path opacity="0.1" d="M418.306 406.417C418.306 406.417 417.685 373.194 447.721 373.194C479.389 373.194 473.524 350.71 504.071 352.546C524.719 353.788 530.072 375.596 541.948 378.818C553.823 382.04 565 385.95 565 405.792L418.306 406.417Z" fill="#1F5AB2"/>
<path opacity="0.1" d="M0.00117461 254.153C0.00117461 254.153 -0.745695 214.141 35.4268 214.141C73.5616 214.141 66.4994 187.065 103.285 189.279C128.147 190.774 134.596 217.035 148.897 220.916C163.198 224.796 176.657 229.505 176.657 253.397L0.00117461 254.153Z" fill="#1F5AB2"/>
<path d="M423.041 84.5372C422.727 84.0331 422.52 83.4704 422.43 82.8834C422.341 82.2964 422.373 81.6974 422.523 81.1229C422.673 80.5484 422.938 80.0105 423.303 79.542C423.667 79.0734 424.124 78.6841 424.644 78.3977C425.67 77.8783 426.855 77.768 427.959 78.089C429.064 78.41 430.005 79.1384 430.593 80.1269L433.713 85.1381L432.204 67.5261C431.881 65.2677 432.918 62.294 435.473 62.0939C437.526 61.7963 439.2 59.0363 441.658 60.2501C441.681 60.2437 460.965 75.4376 461.269 77.5298L462.457 105.408C463.747 114.285 433.582 112.506 433.582 112.506L423.041 84.5372Z" fill="#E98862"/>
<g opacity="0.1">
<path d="M423.041 84.5372C422.727 84.0331 422.52 83.4704 422.43 82.8834C422.341 82.2964 422.373 81.6974 422.523 81.1229C422.673 80.5484 422.938 80.0105 423.303 79.542C423.667 79.0734 424.124 78.6841 424.644 78.3977C425.67 77.8783 426.855 77.768 427.959 78.089C429.064 78.41 430.005 79.1384 430.593 80.1269L433.713 85.1381L432.204 67.5261C431.881 65.2677 432.918 62.294 435.473 62.0939C437.526 61.7963 439.2 59.0363 441.658 60.2501C441.681 60.2437 460.965 75.4376 461.269 77.5298L462.457 105.408C463.747 114.285 433.582 112.506 433.582 112.506L423.041 84.5372Z" fill="#0C0C0C"/>
</g>
<path d="M216.884 221.294C216.884 221.294 215.152 247.278 209.306 256.702C192.478 283.841 187.602 314.37 204.455 330.322C221.308 346.273 328.802 346.496 336.946 309.809C343.801 278.923 329.088 275.602 325.509 250.124C323.889 238.595 319.433 214.421 319.433 214.421" fill="#0A0A0A"/>
<path d="M309.123 304.43C308.936 304.406 306.878 338.572 267.186 335.593C239.709 333.535 229.911 304.379 229.278 304.379C232.242 303.749 237.23 302.834 238.546 302.132C242.873 299.807 248.224 297.388 249.62 288.985C250.427 284.146 249.061 259.367 249.481 254.465L291.659 263.879C291.069 274.227 286.945 298.218 301.402 302.464C303.811 303.171 306.402 303.816 309.123 304.43Z" fill="#E98862"/>
<path opacity="0.5" d="M292.253 292.665C291.592 290.535 291.167 288.34 290.984 286.119C290.52 281.048 290.613 275.942 291.26 270.892C282.688 269.735 274.612 266.197 267.95 260.68C267.167 263.572 262.86 276.211 264.053 278.959C266.305 284.155 276.898 292.665 292.253 292.665Z" fill="#0C0C0C"/>
<path d="M286.799 282.019C270.169 283.632 248.654 276.977 244.197 254.832L240.175 234.85C235.717 212.705 243.735 192.412 264.586 188.215C285.437 184.021 304.635 198.834 309.092 220.979L310.873 229.825C312.583 238.322 316.468 279.149 286.799 282.019Z" fill="#E98862"/>
<path d="M298.627 255.536C293.224 258.283 287.059 259.152 281.107 258.005C280.901 257.966 280.688 257.986 280.493 258.064C280.298 258.141 280.13 258.273 280.007 258.443C279.884 258.613 279.812 258.814 279.8 259.024C279.787 259.233 279.835 259.442 279.937 259.625C281.711 262.752 285.92 268.094 293.14 265.916C297.802 264.51 299.565 259.713 300.218 256.747C300.262 256.541 300.247 256.328 300.175 256.131C300.102 255.934 299.975 255.762 299.808 255.635C299.641 255.508 299.441 255.431 299.231 255.413C299.022 255.396 298.812 255.438 298.627 255.536Z" fill="white"/>
<path d="M298.964 231.506C300.406 231.506 301.575 230.337 301.575 228.895C301.575 227.454 300.406 226.285 298.964 226.285C297.522 226.285 296.354 227.454 296.354 228.895C296.354 230.337 297.522 231.506 298.964 231.506Z" fill="#0C0C0C"/>
<path d="M273.877 235.899C275.319 235.899 276.488 234.73 276.488 233.288C276.488 231.846 275.319 230.677 273.877 230.677C272.436 230.677 271.267 231.846 271.267 233.288C271.267 234.73 272.436 235.899 273.877 235.899Z" fill="#0C0C0C"/>
<path opacity="0.1" d="M276.229 253.002C278.965 252.675 280.989 250.783 280.75 248.776C280.51 246.769 278.098 245.406 275.361 245.733C272.625 246.059 270.6 247.951 270.84 249.958C271.079 251.966 273.492 253.328 276.229 253.002Z" fill="#0C0C0C"/>
<path opacity="0.1" d="M305.145 244.976C305.387 246.98 307.802 248.341 310.539 248.018C311.012 247.961 311.478 247.856 311.929 247.703C312.056 245.313 312.064 243.013 311.993 240.885C311.233 240.695 310.445 240.649 309.668 240.748C306.931 241.072 304.908 242.962 305.145 244.976Z" fill="#0C0C0C"/>
<path opacity="0.5" d="M293.052 251.171L293.093 251.165C293.938 250.988 294.773 250.766 295.593 250.497C296.818 250.088 298.416 249.415 298.197 248.308C297.944 247.045 291.745 234.128 291.04 232.66C290.979 232.532 290.869 232.434 290.734 232.386C290.6 232.339 290.452 232.348 290.324 232.409C290.195 232.471 290.097 232.581 290.05 232.716C290.003 232.85 290.011 232.998 290.073 233.126C292.716 238.627 296.973 247.672 297.144 248.522C297.01 248.918 294.979 249.692 292.883 250.114C292.744 250.139 292.62 250.217 292.539 250.332C292.457 250.446 292.424 250.589 292.446 250.728C292.469 250.867 292.545 250.991 292.658 251.075C292.772 251.158 292.913 251.194 293.053 251.173L293.052 251.171Z" fill="#0C0C0C"/>
<path d="M223.538 242.023L242.231 238.372C256.352 232.467 260.357 207.858 260.357 207.858C260.357 207.858 277.784 224.454 319.433 214.419C319.433 214.419 310.386 156.277 248.888 173.925C229.058 179.616 215.012 199.828 217.101 226.599C218.565 245.361 223.538 242.023 223.538 242.023Z" fill="#0A0A0A"/>
<path d="M246.849 261.318C240.513 262.593 234.011 256.848 232.734 250.51C231.458 244.172 235.893 239.645 242.229 238.37L246.349 241.958L252.295 260.22L246.849 261.318Z" fill="#E98862"/>
<path d="M295.532 222.357C297.118 221.236 298.972 220.555 300.906 220.384C301.877 220.291 302.856 220.345 303.81 220.545C304.774 220.742 305.709 221.058 306.593 221.488L306.622 221.501C306.72 221.544 306.831 221.547 306.931 221.51C307.032 221.472 307.113 221.397 307.159 221.3C307.205 221.203 307.21 221.092 307.175 220.991C307.14 220.889 307.067 220.806 306.971 220.758C306.034 220.263 305.037 219.887 304.006 219.642C302.968 219.389 301.897 219.294 300.831 219.36C298.67 219.48 296.582 220.176 294.781 221.376C294.646 221.468 294.553 221.61 294.523 221.771C294.492 221.932 294.527 222.098 294.619 222.233C294.711 222.368 294.852 222.461 295.013 222.492C295.174 222.522 295.34 222.488 295.475 222.396L295.49 222.385L295.532 222.357Z" fill="#0C0C0C"/>
<path d="M278.457 224.717C276.334 224.296 274.137 224.451 272.095 225.167C271.086 225.515 270.134 226.012 269.272 226.643C268.414 227.264 267.637 227.992 266.961 228.808C266.889 228.889 266.852 228.994 266.858 229.102C266.864 229.21 266.912 229.311 266.991 229.384C267.071 229.456 267.176 229.495 267.284 229.491C267.392 229.486 267.493 229.44 267.567 229.361L267.589 229.339C268.241 228.603 268.984 227.953 269.799 227.403C270.605 226.853 271.49 226.428 272.423 226.142C274.276 225.561 276.25 225.481 278.144 225.909L278.19 225.921C278.349 225.959 278.517 225.933 278.656 225.848C278.796 225.763 278.896 225.626 278.934 225.467C278.973 225.308 278.947 225.141 278.862 225.001C278.777 224.861 278.639 224.761 278.481 224.723L278.457 224.717Z" fill="#0C0C0C"/>
<path d="M242.243 238.065C254.809 233.387 258.978 224.71 260.263 218.253C261.094 213.946 261.016 209.514 260.035 205.239L259.646 205.345C260.612 209.565 260.687 213.939 259.865 218.189C258.597 224.541 254.486 233.079 242.103 237.688L242.243 238.065Z" fill="#0C0C0C"/>
<path d="M99.183 143.535L90.9319 117.171C90.7505 116.592 90.4506 116.057 90.0511 115.6C89.6516 115.143 89.1613 114.774 88.6115 114.517C88.0616 114.26 87.4643 114.12 86.8575 114.106C86.2506 114.093 85.6476 114.205 85.0868 114.438C84.0647 114.899 83.2502 115.723 82.8012 116.75C82.3522 117.777 82.3006 118.935 82.6566 119.998L84.4262 125.651L70.7018 110.427C69.2057 108.708 66.2658 107.555 64.4518 109.361C63.707 110.01 63.2041 110.893 63.0253 111.864C62.8464 112.836 63.0021 113.839 63.467 114.711C63.4471 114.721 63.4285 114.733 63.4114 114.747C63.4003 114.76 63.39 114.774 63.3807 114.788L61.074 112.137C60.6463 111.646 60.1145 111.256 59.5173 110.997C58.9201 110.738 58.2726 110.615 57.6219 110.638C56.9712 110.66 56.3338 110.828 55.7561 111.128C55.1785 111.429 54.6751 111.854 54.2828 112.374C53.6812 113.204 53.3831 114.216 53.4383 115.239C53.4935 116.263 53.8987 117.237 54.586 117.998L55.5676 119.127C55.5484 119.171 55.537 119.217 55.5337 119.265C54.6934 118.656 53.664 118.367 52.6297 118.447C51.5953 118.528 50.6234 118.974 49.8878 119.706C49.1067 120.53 48.665 121.618 48.651 122.754C48.6369 123.889 49.0515 124.988 49.812 125.831L52.251 128.633C52.1886 128.618 52.1234 128.618 52.0609 128.633C51.9984 128.648 51.9403 128.677 51.8913 128.719C51.8358 128.771 51.7968 128.839 51.7792 128.913C50.8805 128.579 49.897 128.55 48.98 128.83C48.063 129.109 47.2632 129.682 46.7035 130.461C46.1324 131.29 45.858 132.289 45.9249 133.294C45.9918 134.299 46.396 135.252 47.0721 135.999L67.6498 159.641C70.5291 162.948 74.33 165.32 78.5657 166.453C82.8014 167.586 87.2789 167.429 91.4247 166.002C94.9994 164.77 97.953 162.193 99.658 158.819C101.363 155.444 101.685 151.537 100.556 147.929L99.183 143.535Z" fill="#E98862"/>
<g opacity="0.2">
<path d="M76.9761 129.848C76.8961 129.917 76.792 129.952 76.6864 129.945C76.5808 129.939 76.4821 129.891 76.4115 129.812L63.3808 115.317C63.3093 115.238 63.2722 115.133 63.2779 115.026C63.2836 114.919 63.3315 114.819 63.411 114.747C63.4906 114.676 63.5954 114.639 63.7022 114.644C63.8091 114.65 63.9093 114.698 63.9809 114.778L77.0132 129.272C77.0848 129.352 77.1218 129.456 77.1162 129.563C77.1106 129.67 77.0628 129.77 76.9834 129.842L76.9761 129.848Z" fill="#0C0C0C"/>
</g>
<g opacity="0.2">
<path d="M70.7416 135.772C70.6615 135.841 70.5575 135.876 70.4519 135.87C70.3462 135.863 70.2475 135.815 70.177 135.736L55.6348 119.559C55.5632 119.48 55.5262 119.375 55.5318 119.269C55.5374 119.162 55.5852 119.062 55.6646 118.99C55.7458 118.922 55.8499 118.887 55.9558 118.893C56.0617 118.898 56.1614 118.944 56.2349 119.021L70.7787 135.196C70.8502 135.276 70.8873 135.38 70.8817 135.487C70.8761 135.594 70.8283 135.694 70.7489 135.766L70.7416 135.772Z" fill="#0C0C0C"/>
</g>
<g opacity="0.2">
<path d="M64.0267 142.228C63.9466 142.297 63.8425 142.332 63.7368 142.325C63.6312 142.318 63.5326 142.27 63.4621 142.191L51.8623 129.29C51.7907 129.211 51.7537 129.106 51.7594 128.999C51.765 128.892 51.8129 128.792 51.8925 128.721C51.9721 128.649 52.0768 128.612 52.1837 128.618C52.2905 128.623 52.3908 128.671 52.4623 128.751L64.0646 141.656C64.1361 141.735 64.173 141.84 64.1672 141.947C64.1615 142.054 64.1136 142.154 64.034 142.225L64.0267 142.228Z" fill="#0C0C0C"/>
</g>
<path d="M420.069 95.823L393.658 223.314L303.727 314.161L350.946 358.135L440.11 256.335L440.644 255.733C443.788 252.116 445.98 247.772 447.023 243.095L477.295 108.17L420.069 95.823Z" fill="#1F5AB2"/>
<path d="M265.842 327.095C238.347 325.798 237.189 302.458 237.189 302.458C237.189 302.458 223.565 303.338 214.508 304.564C199.679 306.57 189.898 311.598 182.113 319.382C174.872 326.624 176.926 349.215 176.926 349.215L184.194 500.364H350.144L357.99 350.047C357.99 350.047 366.905 330.972 351.752 314.939C340.763 303.315 312.394 302.458 300.973 302.458C300.787 302.458 303.29 328.86 265.842 327.095Z" fill="#1F5AB2"/>
<path d="M136.656 248.606L106.922 142.265L50.6943 158.568L85.0674 273.057C86.6394 278.246 89.6242 282.895 93.6879 286.484L94.2524 286.979L184.82 366.586L225.734 316.691L136.656 248.606Z" fill="#1F5AB2"/>
<path d="M426.486 63.9474L425.126 64.8749C421.669 67.2328 417.782 68.8867 413.686 69.7421C409.591 70.5976 405.366 70.638 401.255 69.8608C397.144 69.0837 393.226 67.5043 389.725 65.2129C386.224 62.9215 383.209 59.9629 380.851 56.5061L368.113 37.827C367.945 37.5807 367.828 37.3036 367.767 37.0117C367.706 36.7198 367.703 36.4188 367.758 36.1258C367.814 35.8328 367.926 35.5536 368.09 35.3041C368.253 35.0546 368.464 34.8397 368.71 34.6718L418.957 0.394707C419.455 0.0554803 420.067 -0.0722899 420.659 0.039476C421.25 0.151242 421.774 0.493399 422.113 0.990753L434.857 19.673C437.215 23.1296 438.868 27.0168 439.724 31.1126C440.579 35.2084 440.619 39.4326 439.842 43.544C439.065 47.6553 437.485 51.5732 435.194 55.0741C432.902 58.5749 429.943 61.5901 426.486 63.9474Z" fill="#9A9A9A"/>
<path d="M401.357 27.9782L408.99 32.2852C409.042 32.3146 409.1 32.3309 409.16 32.3327C409.22 32.3345 409.279 32.3218 409.333 32.2957L417.208 28.4492C417.27 28.4193 417.338 28.4072 417.407 28.4143C417.475 28.4213 417.54 28.4472 417.594 28.4891C417.649 28.5309 417.69 28.5871 417.714 28.6513C417.739 28.7155 417.744 28.7851 417.731 28.8525L415.994 37.4423C415.982 37.5009 415.984 37.5616 416.001 37.6191C416.018 37.6766 416.048 37.7291 416.09 37.7722L422.181 44.073C422.229 44.1224 422.262 44.1843 422.277 44.2515C422.291 44.3188 422.287 44.3888 422.263 44.4536C422.24 44.5184 422.199 44.5754 422.146 44.6182C422.092 44.661 422.027 44.6878 421.958 44.6957L413.252 45.699C413.192 45.7058 413.135 45.727 413.086 45.7607C413.036 45.7944 412.996 45.8397 412.968 45.8926L408.854 53.6355C408.822 53.6962 408.773 53.7465 408.714 53.781C408.654 53.8154 408.586 53.8325 408.517 53.8304C408.449 53.8284 408.382 53.8071 408.325 53.7691C408.267 53.7311 408.222 53.6779 408.193 53.6154L404.55 45.645C404.525 45.5905 404.487 45.5429 404.44 45.5062C404.392 45.4695 404.337 45.4449 404.278 45.4345L395.648 43.9173C395.58 43.9055 395.517 43.8748 395.466 43.829C395.414 43.7831 395.377 43.7237 395.358 43.6577C395.338 43.5916 395.338 43.5215 395.356 43.4552C395.375 43.3889 395.412 43.3291 395.462 43.2826L401.915 37.3544C401.958 37.3138 401.992 37.2633 402.012 37.2072C402.032 37.151 402.038 37.0908 402.03 37.0318L400.806 28.354C400.795 28.2849 400.804 28.2142 400.832 28.1501C400.859 28.0859 400.905 28.031 400.963 27.9916C401.02 27.9522 401.088 27.9301 401.158 27.9277C401.228 27.9253 401.297 27.9428 401.357 27.9782Z" fill="#FAFAFA"/>
<path d="M428.565 54.7712L422.193 59.1154L420.903 59.9929L415.821 63.4611C415.821 63.4611 450.442 95.1015 448.792 133.507L463.979 123.149L465.27 122.271L481.744 111.035C445.382 98.552 428.565 54.7712 428.565 54.7712Z" fill="#9A9A9A"/>
<path d="M486.224 98.7922L435.762 133.21C434.403 134.137 434.053 135.989 434.98 137.348L446.37 154.048C447.296 155.406 449.149 155.756 450.508 154.83L500.97 120.412C502.329 119.485 502.679 117.632 501.752 116.274L490.362 99.5743C489.435 98.2157 487.583 97.8655 486.224 98.7922Z" fill="#9A9A9A"/>
<path d="M389.911 71.2184C387.471 72.8879 384.631 73.8777 381.683 74.0859C378.734 74.2942 375.783 73.7134 373.133 72.4034C370.483 71.0933 368.229 69.1012 366.604 66.6318C364.979 64.1625 364.041 61.3049 363.886 58.3528C363.731 55.4007 364.365 52.4606 365.723 49.8348C367.081 47.2089 369.113 44.992 371.612 43.4119C374.11 41.8317 376.984 40.9454 379.939 40.844C382.893 40.7426 385.821 41.4298 388.422 42.8349C390.934 44.1908 393.055 46.1699 394.581 48.582C396.107 50.9941 396.987 53.7582 397.136 56.6086C397.286 59.459 396.7 62.3 395.435 64.8585C394.169 67.4171 392.267 69.6072 389.911 71.2184ZM374.4 48.5542C372.451 49.8855 370.99 51.8177 370.241 54.0561C369.492 56.2946 369.495 58.7166 370.25 60.9532C371.005 63.1897 372.47 65.1181 374.423 66.4445C376.375 67.7709 378.708 68.4226 381.066 68.3003C383.423 68.1779 385.676 67.2882 387.48 65.7668C389.285 64.2454 390.543 62.1756 391.062 59.8729C391.582 57.5702 391.334 55.1609 390.357 53.012C389.38 50.8632 387.727 49.0926 385.651 47.9702C383.902 47.0282 381.928 46.5846 379.944 46.6875C377.96 46.7905 376.042 47.4362 374.4 48.5542Z" fill="#9A9A9A"/>
<path d="M446.253 32.7964C445.65 33.2078 445.02 33.5793 444.368 33.9086C440.427 35.8992 435.857 36.2426 431.662 34.8633C427.468 33.4839 423.993 30.4949 422.003 26.5536C420.012 22.6124 419.669 18.0419 421.048 13.8475C422.427 9.65306 425.416 6.17838 429.358 4.18782C433.13 2.28405 437.485 1.88571 441.539 3.07355C445.594 4.26139 449.046 6.94653 451.195 10.5847C453.343 14.2229 454.028 18.542 453.111 22.6664C452.193 26.7909 449.742 30.4122 446.253 32.7964ZM430.748 10.1225C429.033 11.297 427.693 12.9407 426.888 14.8568C426.083 16.773 425.847 18.8805 426.208 20.9274C426.569 22.9742 427.512 24.8737 428.924 26.3986C430.337 27.9236 432.158 29.0094 434.171 29.5263C436.185 30.0431 438.304 29.9691 440.276 29.3131C442.249 28.6571 443.99 27.4468 445.292 25.8271C446.595 24.2074 447.403 22.2467 447.621 20.1797C447.838 18.1126 447.456 16.0267 446.519 14.1714C445.878 12.9032 444.994 11.7736 443.918 10.8471C442.841 9.92054 441.592 9.21521 440.242 8.77137C438.892 8.32753 437.469 8.15388 436.052 8.26032C434.635 8.36676 433.254 8.75121 431.985 9.39173C431.557 9.60803 431.144 9.85213 430.748 10.1225Z" fill="#9A9A9A"/>
<path d="M442.766 84.2846C442.306 83.654 442.065 82.8905 442.08 82.1103C442.094 81.3302 442.364 80.5761 442.846 79.9631C442.791 79.9324 442.636 79.897 442.694 79.8018L440.009 81.1084C439.226 81.5107 438.324 81.6161 437.47 81.4049C436.615 81.1938 435.866 80.6805 435.361 79.9599C434.885 79.2321 434.696 78.3536 434.831 77.4947C434.966 76.6358 435.415 75.8576 436.091 75.3109C436.058 75.3004 436.041 75.2641 436.011 75.2431L434.907 75.7803C434.167 76.1562 433.321 76.2652 432.511 76.0888C431.701 75.9125 430.976 75.4615 430.46 74.8124C430.145 74.3987 429.925 73.9201 429.818 73.4113C429.71 72.9025 429.716 72.3761 429.836 71.87C429.957 71.364 430.188 70.891 430.513 70.4851C430.838 70.0793 431.25 69.7506 431.717 69.523L434.264 68.2833C434.255 68.2712 434.238 68.2696 434.231 68.2551C434.223 68.2406 434.231 68.2172 434.226 68.1987C433.452 68.3797 432.639 68.2927 431.921 67.9517C431.203 67.6107 430.622 67.036 430.274 66.3218C429.253 64.5345 430.762 62.4979 432.408 61.697L437.791 59.5758C438.621 59.2488 439.52 59.1323 440.407 59.2365C441.293 59.3408 442.14 59.6627 442.872 60.1734C449.213 64.5885 465.5 76.5151 460.245 79.0727L447.306 85.3686C446.536 85.7182 445.672 85.8014 444.85 85.6051C444.028 85.4088 443.294 84.9442 442.766 84.2846Z" fill="#E98862"/>
<path d="M44.7109 500.367H517.457C517.671 500.367 517.876 500.282 518.028 500.131C518.179 499.98 518.264 499.775 518.264 499.561C518.264 499.347 518.179 499.142 518.028 498.99C517.876 498.839 517.671 498.754 517.457 498.754H44.7109C44.4969 498.754 44.2918 498.839 44.1405 498.99C43.9893 499.142 43.9043 499.347 43.9043 499.561C43.9043 499.775 43.9893 499.98 44.1405 500.131C44.2918 500.282 44.4969 500.367 44.7109 500.367Z" fill="#292A2E"/>
<path d="M512.518 257.993L496.983 275.338L501.79 279.643L517.324 262.298L512.518 257.993Z" fill="#1F5AB2"/>
<path d="M441.298 335.624L437.429 340.789L456.065 354.748L459.934 349.583L441.298 335.624Z" fill="#9A9A9A"/>
<path d="M161.227 151.238L144.27 167.196L148.691 171.895L165.649 155.937L161.227 151.238Z" fill="#1F5AB2"/>
<path d="M349.055 124.171L343.461 127.387L355.066 147.574L360.66 144.358L349.055 124.171Z" fill="#1F5AB2"/>
<path d="M120.89 401.826L108.464 421.517L113.921 424.961L126.347 405.269L120.89 401.826Z" fill="#9A9A9A"/>
<path d="M433.559 449.142L423.152 469.972L428.925 472.856L439.331 452.026L433.559 449.142Z" fill="#9A9A9A"/>
<path d="M518.01 394.336L511.83 396.189L518.516 418.493L524.696 416.64L518.01 394.336Z" fill="#1F5AB2"/>
<path d="M65.9094 455.746L62.3154 461.108L81.6648 474.078L85.2588 468.716L65.9094 455.746Z" fill="#1F5AB2"/>
<path d="M272.504 74.0047L266.91 77.2205L278.515 97.4071L284.109 94.1913L272.504 74.0047Z" fill="#9A9A9A"/>
</svg>
