<svg width="103" height="103" viewBox="0 0 103 103" fill="none" xmlns="http://www.w3.org/2000/svg">
<path d="M81.8457 55.9238H21.1546C18.6858 55.9238 16.6846 53.9225 16.6846 51.4537V7.68879C16.6846 5.22001 18.6858 3.21875 21.1546 3.21875H81.8457C84.3145 3.21875 86.3158 5.22001 86.3158 7.68879V51.4537C86.3158 53.9225 84.3145 55.9238 81.8457 55.9238Z" fill="#F4EFED"/>
<path d="M81.8457 56.7285H21.1546C18.2461 56.7285 15.8799 54.3623 15.8799 51.4537V7.68879C15.8799 4.78025 18.2461 2.41406 21.1546 2.41406H81.8457C84.7543 2.41406 87.1205 4.78025 87.1205 7.68879V51.4537C87.1205 54.3623 84.7543 56.7285 81.8457 56.7285ZM21.1546 4.02344C19.1336 4.02344 17.4893 5.66782 17.4893 7.68879V51.4537C17.4893 53.4747 19.1336 55.1191 21.1546 55.1191H81.8457C83.8667 55.1191 85.5111 53.4751 85.5111 51.4537V7.68879C85.5111 5.66782 83.8667 4.02344 81.8457 4.02344H21.1546Z" fill="#690589"/>
<path d="M72.4457 22.9956L72.4453 22.9969C71.0102 21.4293 69.3537 19.9998 67.478 18.7549C62.7637 15.6263 57.3667 14.1115 52.0143 14.0805V14.093C46.328 13.9232 40.5383 15.4256 35.521 18.7549C33.6453 19.9998 31.9889 21.4293 30.5537 22.9969L30.5533 22.9956C30.5533 22.9956 27.3852 26.2832 25.0352 30.1594L31.5093 36.6677C31.9003 37.0741 32.3039 37.4643 32.7171 37.8421C32.7203 37.8458 32.7239 37.8494 32.7276 37.8534L32.7272 37.8514C37.9854 42.6526 44.9677 45.1447 52.0139 45.0606V45.0537C58.7069 44.8952 65.2691 42.4184 70.2711 37.8514L70.2707 37.8534C70.2739 37.8498 70.2775 37.8462 70.2811 37.8421C70.6943 37.4643 71.0979 37.0737 71.489 36.6677L77.9631 30.1594C75.6138 26.2832 72.4457 22.9956 72.4457 22.9956Z" fill="#E0EBFC"/>
<path d="M51.8553 42.6347C59.0699 42.6347 64.9186 36.786 64.9186 29.5714C64.9186 22.3567 59.0699 16.5081 51.8553 16.5081C44.6406 16.5081 38.792 22.3567 38.792 29.5714C38.792 36.786 44.6406 42.6347 51.8553 42.6347Z" fill="#224FA7"/>
<path d="M46.9619 24.2254V34.9173C46.9619 35.9256 48.0555 36.5536 48.9266 36.0459L58.0911 30.6999C58.9554 30.1958 58.9554 28.9473 58.0911 28.4432L48.9266 23.0973C48.0555 22.5891 46.9619 23.2172 46.9619 24.2254Z" fill="#FF4397"/>
<path d="M51.6584 45.8671C44.3539 45.8671 37.4662 43.2511 32.22 38.4765C32.1967 38.4576 32.1745 38.4374 32.1532 38.4157C31.7223 38.021 31.3111 37.6203 30.9301 37.2252L24.4656 30.7269C24.2049 30.4646 24.1562 30.0582 24.3481 29.742C26.7175 25.834 29.8429 22.5738 29.9749 22.437C29.9797 22.4318 29.985 22.4266 29.9902 22.4213C31.4914 20.787 33.2025 19.3281 35.077 18.0841C40.0412 14.7897 45.859 13.1344 51.9002 13.2845C51.9397 13.2785 51.9743 13.2753 52.0201 13.2757C57.7342 13.3091 63.2335 14.9715 67.924 18.0841C69.7985 19.3277 71.5097 20.787 73.0108 22.4213C73.016 22.4266 73.0213 22.4314 73.0261 22.437C73.1581 22.5738 76.2835 25.834 78.6529 29.742C78.8448 30.0582 78.7961 30.4646 78.5354 30.7269L72.0613 37.2348C71.6847 37.6259 71.2675 38.0315 70.8305 38.4314C70.8253 38.4362 70.8204 38.4407 70.8152 38.4451C65.7887 43.0346 59.1601 45.6635 52.14 45.855C52.1026 45.8611 52.064 45.8643 52.025 45.8647C51.9027 45.8667 51.7803 45.8671 51.6584 45.8671ZM33.2689 37.2554C33.2697 37.2558 33.2701 37.2566 33.2709 37.257C38.223 41.7789 44.7417 44.2577 51.6588 44.2577C51.7405 44.2577 51.8206 44.2573 51.9022 44.2569C51.9328 44.2525 51.9642 44.2497 51.996 44.2489C58.6669 44.0908 64.9647 41.6075 69.7297 37.257C69.7309 37.2558 69.7325 37.2545 69.7341 37.2533C69.7361 37.2513 69.7377 37.2497 69.7398 37.2481C70.1534 36.8699 70.5473 36.4869 70.911 36.1091L76.9457 30.0425C74.827 26.7023 72.1892 23.8919 71.8943 23.5817C71.8802 23.5684 71.8665 23.5543 71.8533 23.5399C70.4334 21.9892 68.8119 20.6048 67.0344 19.4251C62.6424 16.5105 57.4968 14.9422 52.1449 14.8858C52.0946 14.8947 52.0439 14.8975 51.992 14.8967C46.2296 14.7257 40.6909 16.2904 35.9674 19.4247C34.1899 20.6044 32.5684 21.9888 31.1486 23.5395C31.1353 23.5539 31.1216 23.5676 31.1075 23.5813C30.813 23.8919 28.172 26.7071 26.0561 30.0425L32.0816 36.0994C32.4542 36.4865 32.8481 36.8695 33.2621 37.2477C33.2637 37.2501 33.2661 37.2525 33.2689 37.2554Z" fill="#690589"/>
<path d="M25.5184 74.4524C25.4954 74.4524 25.4737 74.448 25.4512 74.4456V77.6357C25.9855 76.9131 26.8453 76.442 27.8186 76.442C27.8391 76.442 27.8588 76.4448 27.8793 76.4452V75.544C27.8793 75.1746 27.9018 74.8105 27.9429 74.4524H25.5184Z" fill="#224FA7"/>
<path d="M49.486 74.4524H47.0615C47.103 74.8109 47.1251 75.1746 47.1251 75.544V76.4452C47.1456 76.4448 47.1653 76.442 47.1858 76.442C48.1591 76.442 49.0189 76.9131 49.5532 77.6357V74.4456C49.5307 74.4484 49.509 74.4524 49.486 74.4524Z" fill="#224FA7"/>
<path d="M43.4172 90.4178H41.8577C41.8545 90.4178 41.8509 90.417 41.8476 90.417L41.8472 90.4178H31.5875C28.8769 90.4178 26.6797 92.615 26.6797 95.3256V97.7875V98.4864V99.7811H48.325V98.4864V97.7875V95.3256C48.325 92.615 46.1278 90.4178 43.4172 90.4178Z" fill="#E0EBFC"/>
<path d="M37.5014 95.9287C40.5793 95.9287 43.0928 93.4728 43.1893 90.4178H41.858C41.8548 90.4178 41.8511 90.417 41.8479 90.417L41.8475 90.4178H31.8135C31.91 93.4728 34.4239 95.9287 37.5014 95.9287Z" fill="#F8F5F3"/>
<path d="M47.1867 76.4424C47.1662 76.4424 47.1465 76.4453 47.126 76.4457V75.5444C47.126 70.2777 42.8177 66.0081 37.5027 66.0081C32.1882 66.0081 27.8795 70.2777 27.8795 75.5444V76.4453C27.8589 76.4449 27.8392 76.442 27.8187 76.442C26.1973 76.442 24.8828 77.7444 24.8828 79.3514C24.8828 80.9583 26.1973 82.2607 27.8187 82.2607C27.9253 82.2607 28.0299 82.2543 28.1337 82.2434C29.1267 86.4624 32.943 89.6059 37.5027 89.6059C42.0625 89.6059 45.8787 86.462 46.8717 82.2434C46.9751 82.2543 47.0801 82.2607 47.1867 82.2607C48.8082 82.2607 50.1226 80.9579 50.1226 79.3514C50.1226 77.7448 48.8082 76.4424 47.1867 76.4424Z" fill="#FFDCDC"/>
<path d="M32.7202 81.143C32.0796 81.143 31.5586 80.622 31.5586 79.9814V78.0454C31.5586 77.4048 32.0796 76.8838 32.7202 76.8838C33.3607 76.8838 33.8817 77.4048 33.8817 78.0454V79.9814C33.8817 80.622 33.3607 81.143 32.7202 81.143Z" fill="#690589"/>
<path d="M42.2387 81.143C41.5982 81.143 41.0771 80.622 41.0771 79.9814V78.0454C41.0771 77.4048 41.5982 76.8838 42.2387 76.8838C42.8792 76.8838 43.4003 77.4048 43.4003 78.0454V79.9814C43.4003 80.622 42.8792 81.143 42.2387 81.143Z" fill="#690589"/>
<path d="M37.5023 90.4112C32.8504 90.4112 28.8338 87.4173 27.5182 83.0539C25.5954 82.9014 24.0781 81.2993 24.0781 79.3515C24.0781 77.5563 25.3672 76.0543 27.0748 75.7111V75.5442C27.0748 69.8421 31.7524 65.2031 37.5023 65.2031C43.2522 65.2031 47.9299 69.8421 47.9299 75.5442V75.7111C49.6374 76.0547 50.9265 77.5563 50.9265 79.3515C50.9265 81.2989 49.4093 82.901 47.4865 83.0539C46.1712 87.4177 42.1546 90.4112 37.5023 90.4112ZM28.1342 81.4393C28.5035 81.4393 28.8306 81.6928 28.9167 82.0597C29.8514 86.0296 33.3815 88.8022 37.5023 88.8022C41.6231 88.8022 45.1537 86.0296 46.0879 82.0597C46.1809 81.6654 46.5494 81.3995 46.9562 81.4441C47.0318 81.4522 47.1083 81.457 47.1859 81.457C48.3612 81.457 49.3171 80.5127 49.3171 79.3524C49.3171 78.1968 48.3692 77.2557 47.2012 77.2477C47.1698 77.2493 47.1401 77.2505 47.1252 77.2509C46.9148 77.2509 46.7124 77.1684 46.5619 77.0208C46.4074 76.8695 46.3205 76.6623 46.3205 76.4462V75.545C46.3205 70.7301 42.3646 66.8133 37.5023 66.8133C32.64 66.8133 28.6842 70.7301 28.6842 75.545V76.4454C28.6842 76.6615 28.5972 76.8687 28.4427 77.02C28.2887 77.1712 28.0939 77.265 27.8638 77.2501C27.8493 77.2501 27.8066 77.2477 27.7926 77.2465C26.6435 77.2469 25.6875 78.1912 25.6875 79.3519C25.6875 80.5123 26.6435 81.4566 27.8187 81.4566C27.8964 81.4566 27.9732 81.4518 28.0489 81.4437C28.0774 81.4409 28.106 81.4393 28.1342 81.4393Z" fill="#690589"/>
<path d="M37.7135 85.4475H37.291C36.9756 85.4475 36.6992 85.4072 36.4457 85.3244C36.078 85.2045 35.7521 85.0081 35.503 84.7571C35.1598 84.4114 34.9707 83.9717 34.9707 83.5194C34.9707 83.1859 35.2407 82.9159 35.5742 82.9159C35.9078 82.9159 36.1777 83.1859 36.1777 83.5194C36.1777 83.688 36.2767 83.8232 36.36 83.9069C36.4751 84.0228 36.634 84.1161 36.8207 84.1769C36.9514 84.2195 37.1055 84.2404 37.291 84.2404H37.7135C37.8994 84.2404 38.0535 84.2195 38.1842 84.1769C38.3709 84.1161 38.5298 84.0228 38.6449 83.9069C38.7282 83.8232 38.8272 83.6876 38.8272 83.519C38.8272 83.1855 39.0971 82.9155 39.4307 82.9155C39.7642 82.9155 40.0342 83.1855 40.0342 83.519C40.0342 83.9713 39.8451 84.4106 39.5019 84.7567C39.2528 85.0077 38.9269 85.2041 38.5592 85.324C38.3057 85.4072 38.0293 85.4475 37.7135 85.4475Z" fill="#690589"/>
<path d="M35.4906 74.4526H25.5185C25.1673 74.4526 24.8828 74.1681 24.8828 73.8169V71.2724C24.8828 66.4781 28.7695 62.5911 33.5642 62.5911H38.1927C39.5092 62.5911 40.5766 63.6585 40.5766 64.975V69.3665C40.5762 72.1757 38.2994 74.4526 35.4906 74.4526Z" fill="#224FA7"/>
<path d="M49.4865 74.4526H45.6622C42.8534 74.4526 40.5762 72.1757 40.5762 69.3665V64.975C40.5762 63.6585 41.6436 62.5911 42.9601 62.5911C46.9155 62.5911 50.1222 65.7977 50.1222 69.7532V73.8169C50.1222 74.1681 49.8377 74.4526 49.4865 74.4526Z" fill="#224FA7"/>
<path d="M37.5024 89.6067C35.93 89.6067 34.4462 89.2325 33.1357 88.5698V90.2363C33.1357 92.6472 35.0903 94.6018 37.5012 94.6018C39.912 94.6018 41.8666 92.6472 41.8666 90.2363V88.571C40.5566 89.2329 39.0735 89.6067 37.5024 89.6067Z" fill="#FFDCDC"/>
<path d="M48.325 100.586H26.6797C26.2355 100.586 25.875 100.225 25.875 99.7811V95.3256C25.875 92.1756 28.4375 89.6131 31.5875 89.6131H32.331V88.5694C32.331 88.2898 32.4763 88.0303 32.7144 87.8838C32.9526 87.737 33.2496 87.7249 33.499 87.8512C34.7455 88.4817 36.0925 88.8016 37.5023 88.8016C38.9113 88.8016 40.2576 88.4821 41.5036 87.8525C41.7531 87.7265 42.05 87.739 42.2882 87.8854C42.5264 88.0319 42.6712 88.2914 42.6712 88.571V89.6135H43.4172C46.5671 89.6135 49.1297 92.176 49.1297 95.326V99.7811C49.1297 100.225 48.7692 100.586 48.325 100.586ZM27.4844 98.9764H47.5203V95.3256C47.5203 93.0632 45.6796 91.2225 43.4172 91.2225H41.8617C41.6424 91.2225 41.4328 91.1328 41.2807 90.9746C41.1291 90.8161 41.0482 90.6029 41.0578 90.384C41.0599 90.3349 41.0619 90.2858 41.0619 90.2363V89.7938C39.9277 90.2041 38.7347 90.4114 37.5023 90.4114C36.2687 90.4114 35.0754 90.2037 33.9404 89.793V90.2363C33.9404 90.2858 33.9424 90.3349 33.9444 90.384C33.9537 90.6029 33.8732 90.8165 33.7215 90.9746C33.5698 91.1332 33.3598 91.2225 33.1405 91.2225H31.5875C29.3251 91.2225 27.4844 93.0632 27.4844 95.3256V98.9764Z" fill="#690589"/>
<path d="M35.4906 75.2572H25.5185C24.7243 75.2572 24.0781 74.6111 24.0781 73.8169V71.2724C24.0781 66.042 28.3337 61.7864 33.5642 61.7864H38.1927C39.951 61.7864 41.3813 63.2167 41.3813 64.975V69.3665C41.3813 72.6147 38.7387 75.2572 35.4906 75.2572ZM25.6875 73.6479H35.4906C37.8512 73.6479 39.7719 71.7275 39.7719 69.3665V64.975C39.7719 64.1039 39.0634 63.3958 38.1927 63.3958H33.5638C29.2209 63.3958 25.6871 66.9291 25.6871 71.2724V73.6479H25.6875Z" fill="#690589"/>
<path d="M49.4865 75.2572H45.6622C42.4141 75.2572 39.7715 72.6147 39.7715 69.3665V64.975C39.7715 63.2167 41.2018 61.7864 42.9601 61.7864C47.3528 61.7864 50.9265 65.3604 50.9265 69.7532V73.8169C50.9269 74.6111 50.2807 75.2572 49.4865 75.2572ZM42.9605 63.3958C42.0894 63.3958 41.3813 64.1043 41.3813 64.975V69.3665C41.3813 71.7271 43.3016 73.6479 45.6626 73.6479H49.3179V69.7532C49.3175 66.248 46.4657 63.3958 42.9605 63.3958Z" fill="#690589"/>
<path d="M69.0651 86.5946H66.8654C66.8606 86.5942 66.8562 86.5938 66.8514 86.5938L66.8506 86.5946H52.3811C48.5584 86.5946 45.46 89.689 45.46 93.5064V96.9738V97.9583V99.7814H75.9866V97.9579V96.9734V93.506C75.9862 89.689 72.8873 86.5946 69.0651 86.5946Z" fill="#F8F5F3"/>
<path d="M69.3835 86.6026C69.2777 86.5978 69.1715 86.5946 69.0645 86.5946H66.8648C66.86 86.5942 66.8556 86.5938 66.8508 86.5938L66.85 86.5946H60.7211H54.5922L54.5913 86.5938C54.5865 86.5938 54.5821 86.5946 54.5773 86.5946H52.3777C52.2706 86.5946 52.1644 86.5978 52.0586 86.6026C52.0707 86.7611 52.0892 86.9213 52.1222 87.0874C52.1451 87.2025 52.1781 87.3143 52.2167 87.4242L52.2147 87.4234C52.2175 87.4294 52.2207 87.435 52.2236 87.4411C52.2919 87.633 52.3837 87.8153 52.4963 87.9855C53.7951 90.3999 55.6672 91.518 55.6672 91.518L55.6668 91.5172C57.1342 92.5867 58.9069 93.1954 60.7215 93.2139C62.536 93.1954 64.3088 92.5871 65.7761 91.5172L65.7757 91.518C65.7757 91.518 67.6478 90.3999 68.9466 87.9855C69.0592 87.8153 69.151 87.633 69.2194 87.4411C69.2222 87.435 69.2254 87.4294 69.2282 87.4234L69.2258 87.4242C69.264 87.3139 69.2974 87.2021 69.3203 87.0874C69.3529 86.9209 69.3714 86.7611 69.3835 86.6026Z" fill="#E0EBFC"/>
<path d="M60.7243 85.2116C58.4998 85.2116 56.4052 84.6672 54.5645 83.7092V84.4544V86.3365C54.5645 86.4339 54.5785 86.5293 54.5987 86.623C54.5991 86.623 54.5999 86.623 54.6003 86.6226C54.6204 86.7167 54.6506 86.8077 54.6888 86.8954C54.694 86.9071 54.6984 86.9183 54.7041 86.93C54.721 86.9658 54.7395 87.0008 54.7596 87.035C54.7793 87.0684 54.801 87.1002 54.8236 87.132C54.8356 87.1493 54.8465 87.1674 54.8594 87.1835L55.7341 88.2939C56.6051 89.4 57.8134 90.201 59.1805 90.5205C59.364 90.5636 59.5543 90.6006 59.7511 90.6299C61.9716 90.9623 64.1925 90.018 65.573 88.2396L66.848 86.5969C66.8657 86.5087 66.8774 86.4194 66.8774 86.3289V83.7132C65.0387 84.6688 62.9461 85.2116 60.7243 85.2116Z" fill="#FFDCDC"/>
<path d="M74.0715 67.0933C74.0433 67.0933 74.016 67.097 73.9878 67.0974V65.8574C73.9878 58.6083 68.0496 52.7317 60.725 52.7317C53.3999 52.7317 47.4621 58.6083 47.4621 65.8574V67.0974C47.4339 67.097 47.4066 67.0933 47.3784 67.0933C45.1438 67.0933 43.332 68.8862 43.332 71.0979C43.332 73.3096 45.1438 75.1024 47.3784 75.1024C47.5253 75.1024 47.6697 75.0935 47.8125 75.0787C49.1813 80.8853 54.4407 85.2121 60.7253 85.2121C67.0096 85.2121 72.2694 80.8853 73.6382 75.0787C73.781 75.0935 73.9254 75.1024 74.0723 75.1024C76.3069 75.1024 78.1187 73.3096 78.1187 71.0979C78.1179 68.8858 76.3061 67.0933 74.0715 67.0933Z" fill="#FFDCDC"/>
<path d="M60.724 86.0163C54.3762 86.0163 48.9051 81.8907 47.1952 75.903C44.6045 75.8076 42.5264 73.6885 42.5264 71.0974C42.5264 68.6886 44.322 66.6877 46.6564 66.3413V65.8569C46.6564 58.1757 52.9672 51.9265 60.724 51.9265C68.4808 51.9265 74.7915 58.1757 74.7915 65.8569V66.3413C77.1259 66.6873 78.922 68.6882 78.922 71.0974C78.922 73.6885 76.8439 75.8076 74.2532 75.903C72.5428 81.8907 67.0718 86.0163 60.724 86.0163ZM47.812 74.2735C48.1809 74.2735 48.508 74.527 48.5945 74.8935C49.9146 80.4949 54.9025 84.4073 60.724 84.4073C66.5455 84.4073 71.5329 80.4953 72.8534 74.8935C72.9464 74.4992 73.3185 74.2349 73.7213 74.2779C73.8364 74.29 73.9526 74.2972 74.0709 74.2972C75.8585 74.2972 77.3126 72.8621 77.3126 71.0974C77.3126 69.3371 75.8646 67.904 74.083 67.8976C74.0609 67.8988 74.013 67.9016 74.0037 67.9016C73.7853 67.9056 73.5785 67.8231 73.424 67.6718C73.2695 67.5206 73.1821 67.3133 73.1821 67.0969V65.8565C73.1821 59.0629 67.5932 53.5355 60.724 53.5355C53.8548 53.5355 48.2658 59.0625 48.2658 65.8565V67.0969C48.2658 67.3133 48.1789 67.5206 48.024 67.6718C47.8695 67.8231 47.6591 67.91 47.4442 67.9012C47.4301 67.9012 47.3782 67.898 47.3641 67.8971C45.5898 67.8971 44.1357 69.3323 44.1357 71.097C44.1357 72.8617 45.5898 74.2968 47.3774 74.2968C47.4953 74.2968 47.612 74.2896 47.7267 74.2775C47.7552 74.2747 47.7838 74.2735 47.812 74.2735Z" fill="#690589"/>
<path d="M60.7223 79.8C60.3031 79.8 59.9341 79.7497 59.5945 79.6467C59.0313 79.4757 58.534 79.1848 58.1574 78.8054C57.6653 78.3097 57.3945 77.6812 57.3945 77.0359C57.3945 76.5917 57.755 76.2312 58.1992 76.2312C58.6434 76.2312 59.0039 76.5917 59.0039 77.0359C59.0039 77.3151 59.1644 77.536 59.2996 77.6716C59.4891 77.8623 59.7531 78.0132 60.0629 78.1073C60.2488 78.1637 60.4644 78.191 60.7227 78.191C60.981 78.191 61.1967 78.1637 61.3822 78.1073C61.6924 78.0132 61.9563 77.8627 62.1462 77.6716C62.2806 77.536 62.4411 77.3155 62.4411 77.0359C62.4411 76.5917 62.8016 76.2312 63.2458 76.2312C63.69 76.2312 64.0505 76.5917 64.0505 77.0359C64.0505 77.6817 63.7797 78.3101 63.2877 78.8054C62.9103 79.1848 62.4134 79.4757 61.8497 79.6467C61.5105 79.7497 61.1416 79.8 60.7223 79.8Z" fill="#690589"/>
<path d="M54.1638 74.3032C53.2811 74.3032 52.5625 73.5862 52.5625 72.7043V70.0396C52.5625 69.1581 53.2807 68.4407 54.1638 68.4407C55.0466 68.4407 55.7648 69.1581 55.7648 70.0396V72.7043C55.7648 73.5858 55.0462 74.3032 54.1638 74.3032Z" fill="#690589"/>
<path d="M67.282 74.3032C66.3993 74.3032 65.6807 73.5862 65.6807 72.7043V70.0396C65.6807 69.1581 66.3989 68.4407 67.282 68.4407C68.1647 68.4407 68.8829 69.1581 68.8829 70.0396V72.7043C68.8833 73.5858 68.1647 74.3032 67.282 74.3032Z" fill="#690589"/>
<path d="M60.724 86.0163C54.3762 86.0163 48.9051 81.8907 47.1952 75.903C44.6045 75.8076 42.5264 73.6885 42.5264 71.0974C42.5264 68.6886 44.322 66.6877 46.6564 66.3413V65.8569C46.6564 58.1757 52.9672 51.9265 60.724 51.9265C68.4808 51.9265 74.7915 58.1757 74.7915 65.8569V66.3413C77.1259 66.6873 78.922 68.6882 78.922 71.0974C78.922 73.6885 76.8439 75.8076 74.2532 75.903C72.5428 81.8907 67.0718 86.0163 60.724 86.0163ZM47.812 74.2735C48.1809 74.2735 48.508 74.527 48.5945 74.8935C49.9146 80.4949 54.9025 84.4073 60.724 84.4073C66.5455 84.4073 71.5329 80.4953 72.8534 74.8935C72.9464 74.4992 73.3185 74.2349 73.7213 74.2779C73.8364 74.29 73.9526 74.2972 74.0709 74.2972C75.8585 74.2972 77.3126 72.8621 77.3126 71.0974C77.3126 69.3371 75.8646 67.904 74.083 67.8976C74.0609 67.8988 74.013 67.9016 74.0037 67.9016C73.7853 67.9056 73.5785 67.8231 73.424 67.6718C73.2695 67.5206 73.1821 67.3133 73.1821 67.0969V65.8565C73.1821 59.0629 67.5932 53.5355 60.724 53.5355C53.8548 53.5355 48.2658 59.0625 48.2658 65.8565V67.0969C48.2658 67.3133 48.1789 67.5206 48.024 67.6718C47.8695 67.8231 47.6591 67.91 47.4442 67.9012C47.4301 67.9012 47.3782 67.898 47.3641 67.8971C45.5898 67.8971 44.1357 69.3323 44.1357 71.097C44.1357 72.8617 45.5898 74.2968 47.3774 74.2968C47.4953 74.2968 47.612 74.2896 47.7267 74.2775C47.7552 74.2747 47.7838 74.2735 47.812 74.2735Z" fill="#690589"/>
<path d="M68.1898 50.6144C66.7252 49.7514 64.8451 48.9612 62.5916 48.647C59.8822 47.734 56.3898 47.4838 51.9476 48.651C51.9476 48.651 48.6508 50.0628 43.8238 49.6399C43.514 49.613 43.2702 49.9015 43.3527 50.2008C43.572 50.9995 44.0697 52.4825 45.0759 54.1671C45.2172 54.4033 45.1138 54.7099 44.8579 54.8121C43.8757 55.2044 42.7548 55.5705 41.5043 55.8545C41.2014 55.9233 41.0593 56.2722 41.2287 56.5325C42.7069 58.8033 49.2273 67.2075 63.1424 64.1505C63.3902 64.0958 63.6369 64.0278 63.8791 63.9521C66.2042 63.2239 68.1113 61.5461 69.1574 59.3481L70.1733 57.2137C71.3067 54.8318 70.4642 51.9546 68.1898 50.6144Z" fill="#224FA7"/>
<path d="M57.2857 65.6242C47.0952 65.625 42.0212 59.2254 40.5539 56.9714C40.331 56.629 40.2895 56.1985 40.4432 55.8195C40.5969 55.4405 40.9268 55.1601 41.3259 55.0696C42.294 54.8495 43.2496 54.5626 44.1729 54.2146C43.2455 52.5758 42.778 51.1471 42.5764 50.4136C42.4682 50.0197 42.5603 49.5977 42.8219 49.2839C43.0842 48.9688 43.4833 48.8006 43.8941 48.8381C48.4651 49.2372 51.5994 47.9243 51.6308 47.9111C51.667 47.8954 51.7048 47.8825 51.743 47.8724C55.8405 46.7962 59.5521 46.7921 62.7773 47.8608C64.8208 48.1553 66.7786 48.8485 68.5984 49.9212C71.198 51.4533 72.2091 54.8084 70.8998 57.5597L69.8839 59.6941C68.7388 62.0997 66.6378 63.9312 64.1195 64.7202C63.8331 64.8099 63.5695 64.8807 63.3148 64.9366C61.1329 65.4154 59.1252 65.6242 57.2857 65.6242ZM42.1902 56.5176C44.1621 59.3163 50.4032 66.1248 62.9692 63.3643C63.178 63.3184 63.3969 63.2597 63.6383 63.184C65.7309 62.529 67.4775 61.0045 68.4306 59.0021L69.4466 56.868C70.4009 54.8628 69.6695 52.4201 67.7813 51.3076C66.1228 50.33 64.3396 49.7031 62.4808 49.444C62.4313 49.4371 62.3826 49.4255 62.3351 49.4098C59.4105 48.424 56.0018 48.4261 52.2045 49.4154C51.7281 49.6081 48.6695 50.7589 44.2759 50.4808C44.5266 51.2618 44.9849 52.4451 45.767 53.7543C45.9553 54.0701 45.996 54.45 45.8781 54.798C45.7602 55.146 45.4975 55.4232 45.1563 55.5596C44.1971 55.9426 43.2017 56.2641 42.1902 56.5176Z" fill="#690589"/>
<path d="M73.7385 55.9286C73.1922 55.2172 72.2619 54.9187 71.4029 55.1786L70.6566 55.4043C70.6188 55.8815 70.513 56.3579 70.3375 56.8214C70.3375 56.8218 70.3379 56.8218 70.3379 56.8222C70.2885 56.9541 70.2341 57.0849 70.1726 57.214L69.1567 59.3485C69.0818 59.5058 69.0013 59.6595 68.9177 59.8116C68.9132 59.8196 68.9084 59.8277 68.904 59.8357C68.8223 59.983 68.7362 60.127 68.6469 60.269C68.6469 60.2694 68.6465 60.2694 68.6465 60.2694C68.9161 62.3363 70.0197 64.245 71.7695 65.5031L73.9872 67.0976C74.0154 67.0968 74.0427 67.0932 74.0709 67.0932C74.7718 67.0932 75.4308 67.2698 76.0058 67.58L76.287 65.5192C76.7525 62.111 75.8352 58.6581 73.7385 55.9286Z" fill="#224FA7"/>
<path d="M76.0066 68.3848C75.875 68.3848 75.7435 68.3527 75.6244 68.2883C75.1512 68.0328 74.6145 67.898 74.0721 67.898C74.0528 67.8992 74.0069 67.902 73.9884 67.9024C73.8203 67.9024 73.6557 67.8497 73.5189 67.7512L71.3012 66.1567C69.4098 64.7967 68.1516 62.6889 67.8495 60.3738C67.8253 60.1875 67.8668 59.9988 67.967 59.8403C68.0486 59.7107 68.1271 59.5796 68.2015 59.4456C68.2896 59.2862 68.3629 59.1466 68.4313 59.0034L69.4472 56.869C69.4931 56.7716 69.5345 56.6726 69.5731 56.5728C69.5771 56.5608 69.5812 56.5487 69.5856 56.537C69.7325 56.15 69.823 55.748 69.8552 55.3421C69.8813 55.0117 70.107 54.7313 70.4245 54.6356L71.1708 54.4094C72.3437 54.0542 73.632 54.4686 74.3775 55.4394C76.5896 58.319 77.5765 62.033 77.0853 65.6292L76.804 67.69C76.7686 67.9515 76.6065 68.1788 76.3711 68.2987C76.2565 68.3559 76.1313 68.3848 76.0066 68.3848ZM74.2455 66.2915C74.6185 66.3047 74.9891 66.3607 75.3476 66.4576L75.4904 65.4103C75.9237 62.237 75.0526 58.9599 73.1005 56.4187C72.7601 55.9758 72.1711 55.7867 71.6363 55.9488L71.3881 56.024C71.3257 56.3781 71.2308 56.7273 71.1044 57.0673C71.1004 57.0802 71.096 57.0931 71.0912 57.1059C71.0336 57.258 70.9709 57.4093 70.9001 57.5586L69.8837 59.6938C69.8025 59.8652 69.7147 60.0326 69.6238 60.1984C69.5763 60.2837 69.5313 60.3625 69.4866 60.4378C69.79 62.2057 70.783 63.8017 72.2399 64.849L74.2455 66.2915ZM70.3376 56.8215H70.3416H70.3376Z" fill="#690589"/>
<path d="M45.03 67.84C45.6922 67.3717 46.5013 67.0932 47.3776 67.0932C47.4058 67.0932 47.4332 67.0969 47.4613 67.0977V65.8572C47.4613 64.7114 47.6106 63.6005 47.8894 62.5407C46.7826 61.9493 45.819 61.2906 44.9897 60.6248C44.5898 62.2088 44.488 63.8689 44.7133 65.5193L45.03 67.84Z" fill="#224FA7"/>
<path d="M45.03 68.6446C44.9214 68.6446 44.812 68.6225 44.7094 68.5778C44.4515 68.4656 44.2708 68.227 44.2326 67.9485L43.9159 65.6278C43.6786 63.8885 43.7771 62.1387 44.2093 60.4271C44.2764 60.1616 44.474 59.9483 44.7339 59.861C44.9934 59.7741 45.2795 59.8248 45.4935 59.9966C46.3594 60.6923 47.2932 61.3091 48.2685 61.8301C48.5972 62.0059 48.7626 62.3841 48.6676 62.7446C48.4013 63.7573 48.2661 64.8042 48.2661 65.8564V67.0968C48.2661 67.3132 48.1792 67.5205 48.0243 67.6717C47.8694 67.823 47.6593 67.9099 47.4445 67.9011C47.4304 67.9011 47.3785 67.8979 47.3644 67.897C46.7002 67.897 46.0492 68.1043 45.4947 68.4965C45.3563 68.5943 45.1938 68.6446 45.03 68.6446ZM45.5281 62.0333C45.3632 63.153 45.3571 64.2844 45.5108 65.4106L45.6726 66.5959C45.9904 66.4768 46.3195 66.3915 46.6567 66.3416V65.8572C46.6567 64.8775 46.7601 63.9018 46.9653 62.9478C46.474 62.6646 45.9936 62.3592 45.5281 62.0333Z" fill="#690589"/>
<path d="M75.9856 100.586H45.459C45.0148 100.586 44.6543 100.226 44.6543 99.7813V93.506C44.6543 89.2512 48.1201 85.7898 52.3805 85.7898H53.7593V83.7093C53.7593 83.4281 53.9062 83.1673 54.1464 83.0213C54.387 82.8756 54.6863 82.866 54.9354 82.9955C56.7351 83.9322 58.6824 84.407 60.7239 84.407C62.763 84.407 64.7087 83.9334 66.506 82.9988C66.7554 82.8688 67.0544 82.8789 67.2946 83.0249C67.5348 83.171 67.6816 83.4317 67.6816 83.7125V85.7894H69.0641C73.3241 85.7894 76.7899 89.2512 76.7899 93.5056V99.7813C76.7903 100.226 76.4298 100.586 75.9856 100.586ZM46.2637 98.9766H75.1809V93.506C75.1809 90.1388 72.4369 87.3992 69.0645 87.3992H66.8649C66.8596 87.3992 66.8552 87.3992 66.85 87.3992C66.609 87.3992 66.3805 87.2914 66.2276 87.1055C66.0747 86.9196 66.0123 86.675 66.0594 86.4384C66.0666 86.4022 66.0731 86.366 66.0731 86.3286V84.9702C62.693 86.3451 58.7504 86.3451 55.3691 84.9674V86.3366C55.3691 86.3704 55.376 86.4034 55.3828 86.4364C55.4303 86.673 55.3691 86.9184 55.2162 87.1047C55.0633 87.2914 54.8348 87.3996 54.5938 87.3996H52.3809C49.0081 87.3996 46.2641 90.1392 46.2641 93.5064V98.9766H46.2637Z" fill="#690589"/>
</svg>
