<svg width="174" height="129" viewBox="0 0 174 129" fill="none" xmlns="http://www.w3.org/2000/svg">
<path d="M92.105 90.1612L101.744 84.5949C101.744 84.5949 107.483 60.7378 105.2 39.2873C101.979 9.11102 82.1203 -2.24365 74.567 0.360523C67.0136 2.96469 64.8291 11.7399 77.3316 29.7099C84.6998 40.3117 93.7588 62.3916 92.105 90.1612Z" fill="#1F5AB2"/>
<g opacity="0.65">
<path d="M92.103 90.1612L101.742 84.5949C101.742 84.5949 107.481 60.7378 105.198 39.2873C101.977 9.11102 82.1183 -2.24365 74.565 0.360523C67.0117 2.96469 64.8271 11.7399 77.3296 29.7099C84.6978 40.3117 93.7569 62.3916 92.103 90.1612Z" fill="white"/>
</g>
<path d="M96.103 78.4487H96.0042C95.8309 78.4158 95.6776 78.3154 95.5781 78.1696C95.4786 78.0239 95.441 77.8446 95.4735 77.6712C100.756 49.7781 91.0427 18.5528 78.9969 5.54424C78.8774 5.4133 78.8149 5.24026 78.823 5.0632C78.8311 4.88613 78.9092 4.71955 79.0401 4.60007C79.171 4.48059 79.3441 4.41801 79.5211 4.42611C79.6982 4.43422 79.8648 4.51232 79.9843 4.64325C92.2399 17.8863 102.2 49.6671 96.7818 77.9056C96.7524 78.0624 96.6677 78.2034 96.5431 78.3031C96.4186 78.4027 96.2624 78.4544 96.103 78.4487Z" fill="white"/>
<path d="M67.8279 104.169C66.3962 104.91 62.5578 101.627 61.4964 100.837C59.6684 99.4472 58.2278 97.6113 57.3124 95.5053C56.2805 93.1185 56.0215 90.4687 56.5719 87.9273C56.8663 86.5854 57.2539 85.2657 57.7321 83.9778C58.164 82.7436 58.596 81.4354 59.0403 80.1518C59.5555 78.9209 59.8158 77.5984 59.8055 76.264C59.5957 73.5982 57.3371 71.6234 55.276 69.9079C52.9927 68.0072 50.6477 65.5512 50.8205 62.3546C51.1201 59.8808 52.2312 57.576 53.9801 55.8009C55.5969 53.9496 57.4976 52.3205 58.991 50.3581C60.1562 48.9736 60.8098 47.2305 60.8423 45.4213C60.751 44.3163 60.436 43.2413 59.9166 42.2617C58.7181 40.217 57.6862 38.079 56.8311 35.8685C56.177 33.5976 56.4238 30.8206 58.2504 29.3026C59.0614 28.7647 59.9704 28.3919 60.9255 28.2055C61.8806 28.0192 62.863 28.0229 63.8167 28.2165C65.6202 28.533 67.3339 29.2361 68.8399 30.2776C73.7767 33.3508 76.3686 39.5094 81.6386 41.9532C83.7405 42.7228 85.888 43.3616 88.0688 43.8662C89.1613 44.1286 90.1872 44.6152 91.0817 45.2951C91.9762 45.9749 92.7196 46.8333 93.2648 47.8156C95.0421 51.8638 91.1296 56.5538 92.3021 60.8118C93.3512 64.5144 96.881 66.1806 98.7323 69.624C99.4895 71.1518 99.7361 72.8824 99.4358 74.5608C99.1167 77.3882 98.2799 80.1327 96.9674 82.6573C95.4942 85.25 93.8662 87.7517 92.0923 90.1488C92.0923 90.1488 68.05 104.083 67.8279 104.169Z" fill="#1F5AB2"/>
<g opacity="0.3">
<path d="M67.8279 104.169C66.3962 104.91 62.5578 101.627 61.4964 100.837C59.6684 99.4472 58.2278 97.6113 57.3124 95.5053C56.2805 93.1185 56.0215 90.4687 56.5719 87.9273C56.8663 86.5854 57.2539 85.2657 57.7321 83.9778C58.164 82.7436 58.596 81.4354 59.0403 80.1518C59.5555 78.9209 59.8158 77.5984 59.8055 76.264C59.5957 73.5982 57.3371 71.6234 55.276 69.9079C52.9927 68.0072 50.6477 65.5512 50.8205 62.3546C51.1201 59.8808 52.2312 57.576 53.9801 55.8009C55.5969 53.9496 57.4976 52.3205 58.991 50.3581C60.1562 48.9736 60.8098 47.2305 60.8423 45.4213C60.751 44.3163 60.436 43.2413 59.9166 42.2617C58.7181 40.217 57.6862 38.079 56.8311 35.8685C56.177 33.5976 56.4238 30.8206 58.2504 29.3026C59.0614 28.7647 59.9704 28.3919 60.9255 28.2055C61.8806 28.0192 62.863 28.0229 63.8167 28.2165C65.6202 28.533 67.3339 29.2361 68.8399 30.2776C73.7767 33.3508 76.3686 39.5094 81.6386 41.9532C83.7405 42.7228 85.888 43.3616 88.0688 43.8662C89.1613 44.1286 90.1872 44.6152 91.0817 45.2951C91.9762 45.9749 92.7196 46.8333 93.2648 47.8156C95.0421 51.8638 91.1296 56.5538 92.3021 60.8118C93.3512 64.5144 96.881 66.1806 98.7323 69.624C99.4895 71.1518 99.7361 72.8824 99.4358 74.5608C99.1167 77.3882 98.2799 80.1327 96.9674 82.6573C95.4942 85.25 93.8662 87.7517 92.0923 90.1488C92.0923 90.1488 68.05 104.083 67.8279 104.169Z" fill="white"/>
</g>
<path d="M81.7867 96.9C81.6185 96.8843 81.4633 96.8029 81.3547 96.6736C81.2461 96.5442 81.1929 96.3772 81.2066 96.2088C83.5146 71.1791 73.0979 42.8912 64.9028 34.4122C64.7866 34.2911 64.7232 34.1288 64.7267 33.9609C64.7302 33.7931 64.8002 33.6336 64.9213 33.5174C65.0424 33.4012 65.2047 33.3379 65.3725 33.3413C65.5403 33.3448 65.6999 33.4148 65.8161 33.5359C74.1716 42.1753 84.8105 70.9446 82.4655 96.3199C82.4593 96.4026 82.4367 96.4833 82.3992 96.5574C82.3616 96.6314 82.3098 96.6972 82.2467 96.7511C82.1837 96.8051 82.1105 96.8459 82.0316 96.8715C81.9526 96.897 81.8694 96.9067 81.7867 96.9Z" fill="white"/>
<path d="M79.3057 66.0449H79.1206C73.2605 64.0909 67.2066 62.775 61.0642 62.1201C60.9819 62.1139 60.9017 62.0914 60.8283 62.0537C60.7549 62.016 60.6898 61.9639 60.6369 61.9006C60.584 61.8373 60.5443 61.7641 60.5201 61.6852C60.496 61.6063 60.488 61.5234 60.4964 61.4413C60.499 61.3562 60.5196 61.2725 60.5568 61.1958C60.5939 61.1192 60.6469 61.0512 60.7121 60.9965C60.7774 60.9417 60.8535 60.9014 60.9354 60.8781C61.0173 60.8547 61.1033 60.849 61.1876 60.8612C67.433 61.5022 73.5906 62.8182 79.5525 64.786C79.6895 64.8431 79.8025 64.9458 79.8722 65.0768C79.9419 65.2077 79.9641 65.3588 79.935 65.5043C79.9059 65.6497 79.8273 65.7807 79.7126 65.8747C79.5979 65.9688 79.4541 66.0202 79.3057 66.0202V66.0449Z" fill="white"/>
<path d="M86.2336 129C134.411 129 173.467 118.112 173.467 104.68C173.467 91.2489 134.411 80.3606 86.2336 80.3606C38.0558 80.3606 -1 91.2489 -1 104.68C-1 118.112 38.0558 129 86.2336 129Z" fill="#E0E0E0"/>
</svg>
